<svg width="194" height="45" viewBox="0 0 194 45" fill="none" xmlns="http://www.w3.org/2000/svg">
<path d="M108.955 26.289C109.011 26.6297 109.039 26.9587 109.039 27.276C109.039 27.9713 108.927 28.606 108.703 29.18C108.479 29.754 108.187 30.2067 107.828 30.538C107.469 30.8693 107.102 31.035 106.729 31.035C106.542 31.035 106.325 30.9673 106.078 30.832C105.835 30.692 105.625 30.5263 105.448 30.335C105.271 30.139 105.182 29.9663 105.182 29.817C105.182 29.4903 105.238 28.9653 105.35 28.242C105.462 27.5187 105.595 26.891 105.749 26.359C105.903 26.2843 106.064 26.247 106.232 26.247C106.409 26.247 106.563 26.296 106.694 26.394C106.825 26.4873 106.913 26.6203 106.96 26.793C106.825 27.1057 106.692 27.5467 106.561 28.116C106.435 28.6853 106.372 29.1497 106.372 29.509C106.372 29.859 106.44 30.034 106.575 30.034C106.776 30.034 106.972 29.9057 107.163 29.649C107.354 29.3877 107.511 29.0517 107.632 28.641C107.753 28.2257 107.814 27.8057 107.814 27.381C107.814 27.0637 107.777 26.765 107.702 26.485C107.935 26.2283 108.183 26.1 108.444 26.1C108.626 26.1 108.796 26.163 108.955 26.289ZM110.214 31C110.079 31 109.927 30.9603 109.759 30.881C109.596 30.797 109.456 30.7013 109.339 30.594C109.223 30.482 109.164 30.3863 109.164 30.307C109.164 30.2277 109.197 30.0317 109.262 29.719C109.328 29.4063 109.37 29.2057 109.388 29.117C109.528 28.473 109.622 28.0273 109.668 27.78L109.738 27.388C109.836 26.8467 109.925 26.4103 110.004 26.079C110.088 25.7477 110.172 25.582 110.256 25.582C110.354 25.582 110.483 25.624 110.641 25.708C110.805 25.792 110.947 25.89 111.068 26.002C111.19 26.114 111.25 26.212 111.25 26.296C111.25 26.408 111.229 26.5177 111.187 26.625C111.15 26.7277 111.092 26.863 111.012 27.031C110.938 27.1757 110.886 27.2877 110.858 27.367C110.77 27.6423 110.674 28.025 110.571 28.515C110.473 29.005 110.392 29.4787 110.326 29.936C110.476 29.8613 110.592 29.7983 110.676 29.747C110.76 29.691 110.858 29.6163 110.97 29.523C111.176 29.593 111.327 29.691 111.425 29.817C111.528 29.9383 111.579 30.0783 111.579 30.237C111.579 30.349 111.5 30.4657 111.341 30.587C111.183 30.7037 110.994 30.8017 110.774 30.881C110.555 30.9603 110.368 31 110.214 31ZM113.447 28.249C113.293 28.9537 113.192 29.5277 113.146 29.971C113.444 29.8263 113.685 29.677 113.867 29.523C114.072 29.593 114.224 29.691 114.322 29.817C114.424 29.9383 114.476 30.0783 114.476 30.237C114.476 30.349 114.396 30.4657 114.238 30.587C114.079 30.7037 113.89 30.8017 113.671 30.881C113.451 30.9603 113.265 31 113.111 31C112.975 31 112.824 30.9603 112.656 30.881C112.492 30.797 112.352 30.7013 112.236 30.594C112.119 30.482 112.061 30.3863 112.061 30.307C112.061 30.2417 112.084 30.1017 112.131 29.887C112.182 29.6677 112.226 29.481 112.264 29.327C112.306 29.1683 112.336 29.0517 112.355 28.977L112.523 28.305L112.096 28.333C112.016 28.2957 111.956 28.2373 111.914 28.158C111.872 28.0787 111.851 27.9877 111.851 27.885C111.851 27.6983 111.918 27.5397 112.054 27.409C112.222 27.4183 112.427 27.4277 112.67 27.437C112.67 27.1383 112.702 26.8093 112.768 26.45C112.833 26.086 112.905 25.904 112.985 25.904C113.083 25.904 113.206 25.946 113.356 26.03C113.505 26.114 113.636 26.212 113.748 26.324C113.86 26.436 113.916 26.534 113.916 26.618C113.916 26.7253 113.895 26.835 113.853 26.947C113.815 27.0543 113.752 27.2037 113.664 27.395C113.743 27.3857 113.944 27.353 114.266 27.297L114.427 27.269C114.511 27.3157 114.574 27.3833 114.616 27.472C114.662 27.5607 114.686 27.6563 114.686 27.759C114.686 27.843 114.669 27.9247 114.637 28.004C114.604 28.0833 114.555 28.151 114.49 28.207L113.447 28.249ZM116.384 26.849C116.295 26.849 116.188 26.814 116.062 26.744C115.941 26.6693 115.836 26.583 115.747 26.485C115.658 26.3823 115.614 26.2913 115.614 26.212C115.614 26.086 115.647 25.96 115.712 25.834C115.777 25.708 115.859 25.617 115.957 25.561C116.004 25.5377 116.078 25.526 116.181 25.526C116.349 25.526 116.517 25.5633 116.685 25.638C116.858 25.7127 116.963 25.806 117 25.918C117.009 25.9413 117.014 25.9763 117.014 26.023C117.014 26.1303 116.981 26.2493 116.916 26.38C116.851 26.5107 116.769 26.6227 116.671 26.716C116.573 26.8047 116.477 26.849 116.384 26.849ZM115.908 31C115.787 31 115.649 30.9603 115.495 30.881C115.346 30.797 115.215 30.7013 115.103 30.594C114.996 30.482 114.942 30.3887 114.942 30.314C114.942 30.23 114.972 30.1063 115.033 29.943C115.094 29.7797 115.185 29.5557 115.306 29.271C115.399 29.0517 115.469 28.8813 115.516 28.76C115.563 28.634 115.586 28.5453 115.586 28.494C115.586 28.4567 115.563 28.417 115.516 28.375C115.474 28.3283 115.409 28.2723 115.32 28.207C115.217 28.1277 115.14 28.0647 115.089 28.018C115.042 27.9713 115.019 27.9223 115.019 27.871C115.019 27.773 115.063 27.6587 115.152 27.528C115.245 27.3973 115.353 27.2853 115.474 27.192C115.6 27.0987 115.707 27.052 115.796 27.052C115.903 27.052 116.02 27.0987 116.146 27.192C116.277 27.2853 116.386 27.3973 116.475 27.528C116.568 27.654 116.615 27.7567 116.615 27.836C116.615 28.0413 116.561 28.3353 116.454 28.718C116.351 29.096 116.218 29.5043 116.055 29.943C116.167 29.8917 116.265 29.838 116.349 29.782C116.433 29.726 116.55 29.6397 116.699 29.523C116.909 29.593 117.063 29.6933 117.161 29.824C117.259 29.95 117.308 30.0877 117.308 30.237C117.308 30.3583 117.229 30.4773 117.07 30.594C116.916 30.7107 116.727 30.8087 116.503 30.888C116.279 30.9627 116.081 31 115.908 31ZM119.168 28.648C119.537 28.1627 119.822 27.808 120.022 27.584C120.223 27.3553 120.386 27.241 120.512 27.241C120.601 27.241 120.704 27.2783 120.82 27.353C120.942 27.4277 121.044 27.514 121.128 27.612C121.217 27.7053 121.259 27.78 121.254 27.836C121.25 27.9527 121.233 28.0787 121.205 28.214C121.177 28.3493 121.138 28.515 121.086 28.711C121.474 28.2163 121.777 27.8477 121.996 27.605C122.22 27.3623 122.395 27.241 122.521 27.241C122.61 27.241 122.717 27.2853 122.843 27.374C122.969 27.4627 123.077 27.5653 123.165 27.682C123.259 27.794 123.305 27.8803 123.305 27.941C123.301 28.0203 123.268 28.1557 123.207 28.347C123.147 28.5383 123.06 28.7927 122.948 29.11C122.799 29.5207 122.703 29.7983 122.661 29.943C122.811 29.8637 122.925 29.7983 123.004 29.747C123.088 29.691 123.186 29.6163 123.298 29.523C123.504 29.593 123.658 29.691 123.76 29.817C123.863 29.9383 123.914 30.0783 123.914 30.237C123.914 30.349 123.833 30.4657 123.669 30.587C123.511 30.7037 123.322 30.8017 123.102 30.881C122.883 30.9603 122.696 31 122.542 31C122.44 31 122.318 30.958 122.178 30.874C122.038 30.79 121.917 30.6943 121.814 30.587C121.712 30.475 121.66 30.3887 121.66 30.328C121.66 30.2907 121.684 30.202 121.73 30.062C121.777 29.9173 121.807 29.8193 121.821 29.768C121.91 29.488 121.975 29.2663 122.017 29.103C122.064 28.935 122.087 28.8113 122.087 28.732C122.087 28.676 122.076 28.648 122.052 28.648C121.856 28.648 121.509 28.9747 121.009 29.628C120.972 29.7633 120.937 29.9337 120.904 30.139C120.848 30.4377 120.799 30.657 120.757 30.797C120.715 30.9323 120.659 31 120.589 31C120.491 31 120.37 30.958 120.225 30.874C120.081 30.79 119.955 30.6943 119.847 30.587C119.74 30.475 119.686 30.384 119.686 30.314C119.686 30.2673 119.738 30.0853 119.84 29.768C119.924 29.502 119.99 29.285 120.036 29.117C120.083 28.9443 120.106 28.816 120.106 28.732C120.106 28.676 120.092 28.648 120.064 28.648C119.878 28.648 119.53 28.9747 119.021 29.628C119.003 29.7027 118.982 29.796 118.958 29.908C118.94 30.02 118.926 30.0993 118.916 30.146C118.865 30.4213 118.816 30.6337 118.769 30.783C118.727 30.9277 118.671 31 118.601 31C118.48 31 118.342 30.9603 118.188 30.881C118.039 30.797 117.908 30.7013 117.796 30.594C117.689 30.482 117.635 30.3887 117.635 30.314C117.635 30.23 117.666 30.1063 117.726 29.943C117.787 29.7797 117.878 29.5557 117.999 29.271C118.093 29.0517 118.163 28.8813 118.209 28.76C118.256 28.634 118.279 28.5453 118.279 28.494C118.279 28.4567 118.256 28.417 118.209 28.375C118.167 28.3283 118.102 28.2723 118.013 28.207C117.911 28.1277 117.834 28.0647 117.782 28.018C117.736 27.9713 117.712 27.9223 117.712 27.871C117.712 27.773 117.757 27.6587 117.845 27.528C117.939 27.3973 118.046 27.2853 118.167 27.192C118.293 27.0987 118.401 27.052 118.489 27.052C118.587 27.052 118.699 27.0963 118.825 27.185C118.956 27.2737 119.068 27.3763 119.161 27.493C119.259 27.605 119.308 27.6913 119.308 27.752C119.308 27.864 119.294 28.0017 119.266 28.165C119.243 28.3283 119.21 28.4893 119.168 28.648ZM127.487 29.971C127.771 29.831 128.012 29.6817 128.208 29.523C128.413 29.593 128.565 29.691 128.663 29.817C128.765 29.9383 128.817 30.0783 128.817 30.237C128.817 30.349 128.737 30.4657 128.579 30.587C128.42 30.7037 128.231 30.8017 128.012 30.881C127.792 30.9603 127.606 31 127.452 31C127.344 31 127.221 30.9603 127.081 30.881C126.945 30.8017 126.826 30.7083 126.724 30.601C126.626 30.4937 126.577 30.4097 126.577 30.349C126.577 30.3023 126.595 30.2393 126.633 30.16C126.675 30.0807 126.719 29.999 126.766 29.915C126.812 29.831 126.843 29.775 126.857 29.747L126.682 29.649C126.434 30.055 126.196 30.3817 125.968 30.629C125.744 30.8763 125.522 31 125.303 31C125.153 31 124.995 30.9347 124.827 30.804C124.663 30.6733 124.523 30.5147 124.407 30.328C124.295 30.1413 124.239 29.9757 124.239 29.831C124.239 29.4157 124.325 28.991 124.498 28.557C124.67 28.123 124.911 27.7637 125.219 27.479C125.531 27.1943 125.884 27.052 126.276 27.052C126.416 27.052 126.558 27.115 126.703 27.241C126.847 27.367 126.941 27.4953 126.983 27.626C127.006 27.5233 127.039 27.4347 127.081 27.36C127.127 27.2807 127.176 27.241 127.228 27.241C127.349 27.241 127.482 27.2853 127.627 27.374C127.776 27.458 127.902 27.5583 128.005 27.675C128.107 27.787 128.159 27.8757 128.159 27.941C128.154 28.0297 128.117 28.1767 128.047 28.382C127.981 28.5873 127.874 28.9 127.725 29.32C127.636 29.5487 127.557 29.7657 127.487 29.971ZM125.338 30.027C125.716 29.7937 126.045 29.5067 126.325 29.166C126.605 28.8207 126.796 28.4403 126.899 28.025C126.773 27.969 126.654 27.941 126.542 27.941C126.322 27.941 126.126 28.039 125.954 28.235C125.781 28.431 125.643 28.6877 125.541 29.005C125.438 29.3223 125.37 29.663 125.338 30.027ZM130.687 28.249C130.533 28.9537 130.433 29.5277 130.386 29.971C130.685 29.8263 130.925 29.677 131.107 29.523C131.312 29.593 131.464 29.691 131.562 29.817C131.665 29.9383 131.716 30.0783 131.716 30.237C131.716 30.349 131.637 30.4657 131.478 30.587C131.319 30.7037 131.13 30.8017 130.911 30.881C130.692 30.9603 130.505 31 130.351 31C130.216 31 130.064 30.9603 129.896 30.881C129.733 30.797 129.593 30.7013 129.476 30.594C129.359 30.482 129.301 30.3863 129.301 30.307C129.301 30.2417 129.324 30.1017 129.371 29.887C129.422 29.6677 129.467 29.481 129.504 29.327C129.546 29.1683 129.576 29.0517 129.595 28.977L129.763 28.305L129.336 28.333C129.257 28.2957 129.196 28.2373 129.154 28.158C129.112 28.0787 129.091 27.9877 129.091 27.885C129.091 27.6983 129.159 27.5397 129.294 27.409C129.462 27.4183 129.667 27.4277 129.91 27.437C129.91 27.1383 129.943 26.8093 130.008 26.45C130.073 26.086 130.146 25.904 130.225 25.904C130.323 25.904 130.447 25.946 130.596 26.03C130.745 26.114 130.876 26.212 130.988 26.324C131.1 26.436 131.156 26.534 131.156 26.618C131.156 26.7253 131.135 26.835 131.093 26.947C131.056 27.0543 130.993 27.2037 130.904 27.395C130.983 27.3857 131.184 27.353 131.506 27.297L131.667 27.269C131.751 27.3157 131.814 27.3833 131.856 27.472C131.903 27.5607 131.926 27.6563 131.926 27.759C131.926 27.843 131.91 27.9247 131.877 28.004C131.844 28.0833 131.795 28.151 131.73 28.207L130.687 28.249ZM133.708 31C133.484 31 133.251 30.9277 133.008 30.783C132.765 30.6337 132.565 30.4517 132.406 30.237C132.247 30.0223 132.168 29.8193 132.168 29.628C132.168 29.2873 132.247 28.914 132.406 28.508C132.569 28.102 132.793 27.759 133.078 27.479C133.363 27.1943 133.685 27.052 134.044 27.052C134.301 27.052 134.532 27.108 134.737 27.22C134.947 27.332 135.11 27.472 135.227 27.64C135.344 27.808 135.402 27.9713 135.402 28.13C135.402 28.326 135.313 28.5197 135.136 28.711C134.959 28.8977 134.711 29.0633 134.394 29.208C134.077 29.348 133.715 29.4483 133.309 29.509C133.304 29.565 133.302 29.649 133.302 29.761C133.302 29.901 133.307 30.006 133.316 30.076C133.549 30.0527 133.78 29.9897 134.009 29.887C134.238 29.7843 134.487 29.6397 134.758 29.453C134.94 29.509 135.078 29.5977 135.171 29.719C135.264 29.8403 135.311 29.985 135.311 30.153C135.311 30.293 135.225 30.4307 135.052 30.566C134.884 30.6967 134.674 30.8017 134.422 30.881C134.17 30.9603 133.932 31 133.708 31ZM133.414 28.984C133.699 28.8813 133.937 28.7507 134.128 28.592C134.319 28.4333 134.415 28.298 134.415 28.186C134.415 28.0553 134.324 27.9667 134.142 27.92C133.965 28.0507 133.813 28.207 133.687 28.389C133.566 28.571 133.475 28.7693 133.414 28.984ZM139.546 31C139.457 31 139.329 30.9627 139.161 30.888C138.993 30.8087 138.837 30.7177 138.692 30.615C138.552 30.5077 138.473 30.4167 138.454 30.342C138.431 30.2393 138.389 29.81 138.328 29.054C138.309 28.7507 138.293 28.529 138.279 28.389C138.27 28.2677 138.26 28.1767 138.251 28.116C138.19 27.4907 138.16 27.038 138.16 26.758C138.16 26.4453 138.195 26.2797 138.265 26.261C138.284 26.2563 138.314 26.254 138.356 26.254C138.459 26.254 138.585 26.2797 138.734 26.331C138.888 26.3777 139.023 26.4383 139.14 26.513C139.257 26.5877 139.324 26.66 139.343 26.73C139.352 26.758 139.357 26.863 139.357 27.045C139.357 27.3017 139.35 27.6167 139.336 27.99C139.317 28.5967 139.308 29.0657 139.308 29.397V29.649C139.705 28.781 140.148 27.6167 140.638 26.156C140.778 26.1093 140.92 26.086 141.065 26.086C141.256 26.086 141.417 26.1373 141.548 26.24C141.683 26.3427 141.772 26.499 141.814 26.709C140.503 29.5697 139.747 31 139.546 31ZM142.902 31C142.678 31 142.445 30.9277 142.202 30.783C141.96 30.6337 141.759 30.4517 141.6 30.237C141.442 30.0223 141.362 29.8193 141.362 29.628C141.362 29.2873 141.442 28.914 141.6 28.508C141.764 28.102 141.988 27.759 142.272 27.479C142.557 27.1943 142.879 27.052 143.238 27.052C143.495 27.052 143.726 27.108 143.931 27.22C144.141 27.332 144.305 27.472 144.421 27.64C144.538 27.808 144.596 27.9713 144.596 28.13C144.596 28.326 144.508 28.5197 144.33 28.711C144.153 28.8977 143.906 29.0633 143.588 29.208C143.271 29.348 142.909 29.4483 142.503 29.509C142.499 29.565 142.496 29.649 142.496 29.761C142.496 29.901 142.501 30.006 142.51 30.076C142.744 30.0527 142.975 29.9897 143.203 29.887C143.432 29.7843 143.682 29.6397 143.952 29.453C144.134 29.509 144.272 29.5977 144.365 29.719C144.459 29.8403 144.505 29.985 144.505 30.153C144.505 30.293 144.419 30.4307 144.246 30.566C144.078 30.6967 143.868 30.8017 143.616 30.881C143.364 30.9603 143.126 31 142.902 31ZM142.608 28.984C142.893 28.8813 143.131 28.7507 143.322 28.592C143.514 28.4333 143.609 28.298 143.609 28.186C143.609 28.0553 143.518 27.9667 143.336 27.92C143.159 28.0507 143.007 28.207 142.881 28.389C142.76 28.571 142.669 28.7693 142.608 28.984ZM146.266 29.53C146.252 29.894 146.217 30.23 146.161 30.538C146.105 30.846 146.028 31 145.93 31C145.814 31 145.678 30.9603 145.524 30.881C145.37 30.8017 145.237 30.7083 145.125 30.601C145.018 30.489 144.964 30.3933 144.964 30.314C144.964 30.258 144.983 30.1623 145.02 30.027C145.058 29.887 145.102 29.733 145.153 29.565C145.335 28.9677 145.478 28.4333 145.58 27.962C145.636 27.7007 145.685 27.43 145.727 27.15C145.793 26.7767 145.849 26.4897 145.895 26.289C145.942 26.0883 146 25.9203 146.07 25.785C146.145 25.645 146.236 25.575 146.343 25.575C146.423 25.575 146.539 25.624 146.693 25.722C146.852 25.8153 146.992 25.925 147.113 26.051C147.235 26.1723 147.295 26.2727 147.295 26.352C147.295 26.422 147.27 26.5013 147.218 26.59C147.172 26.674 147.092 26.7953 146.98 26.954C146.957 26.9867 146.913 27.052 146.847 27.15C146.787 27.248 146.742 27.3297 146.714 27.395C146.658 27.5303 146.595 27.703 146.525 27.913C146.46 28.123 146.404 28.3283 146.357 28.529L146.483 28.599C146.787 28.1883 147.05 27.8593 147.274 27.612C147.503 27.3647 147.68 27.241 147.806 27.241C147.895 27.241 148.002 27.2853 148.128 27.374C148.254 27.4627 148.364 27.5653 148.457 27.682C148.551 27.794 148.597 27.8803 148.597 27.941C148.593 28.025 148.565 28.1463 148.513 28.305C148.467 28.459 148.392 28.676 148.289 28.956C148.159 29.292 148.042 29.621 147.939 29.943C148.084 29.887 148.205 29.831 148.303 29.775C148.401 29.719 148.516 29.642 148.646 29.544C148.842 29.628 148.985 29.733 149.073 29.859C149.167 29.985 149.209 30.139 149.199 30.321C149.199 30.433 149.113 30.5403 148.94 30.643C148.772 30.7457 148.576 30.832 148.352 30.902C148.133 30.9673 147.958 31 147.827 31C147.72 31 147.596 30.958 147.456 30.874C147.316 30.79 147.195 30.6943 147.092 30.587C146.99 30.475 146.941 30.3887 146.945 30.328C146.945 30.2907 146.969 30.202 147.015 30.062C147.062 29.9173 147.092 29.8193 147.106 29.768C147.195 29.488 147.26 29.2663 147.302 29.103C147.349 28.935 147.372 28.8113 147.372 28.732C147.372 28.676 147.361 28.648 147.337 28.648C147.235 28.648 147.081 28.7367 146.875 28.914C146.67 29.0913 146.467 29.2967 146.266 29.53ZM150.987 26.849C150.899 26.849 150.791 26.814 150.665 26.744C150.544 26.6693 150.439 26.583 150.35 26.485C150.262 26.3823 150.217 26.2913 150.217 26.212C150.217 26.086 150.25 25.96 150.315 25.834C150.381 25.708 150.462 25.617 150.56 25.561C150.607 25.5377 150.682 25.526 150.784 25.526C150.952 25.526 151.12 25.5633 151.288 25.638C151.461 25.7127 151.566 25.806 151.603 25.918C151.613 25.9413 151.617 25.9763 151.617 26.023C151.617 26.1303 151.585 26.2493 151.519 26.38C151.454 26.5107 151.372 26.6227 151.274 26.716C151.176 26.8047 151.081 26.849 150.987 26.849ZM150.511 31C150.39 31 150.252 30.9603 150.098 30.881C149.949 30.797 149.818 30.7013 149.706 30.594C149.599 30.482 149.545 30.3887 149.545 30.314C149.545 30.23 149.576 30.1063 149.636 29.943C149.697 29.7797 149.788 29.5557 149.909 29.271C150.003 29.0517 150.073 28.8813 150.119 28.76C150.166 28.634 150.189 28.5453 150.189 28.494C150.189 28.4567 150.166 28.417 150.119 28.375C150.077 28.3283 150.012 28.2723 149.923 28.207C149.821 28.1277 149.744 28.0647 149.692 28.018C149.646 27.9713 149.622 27.9223 149.622 27.871C149.622 27.773 149.667 27.6587 149.755 27.528C149.849 27.3973 149.956 27.2853 150.077 27.192C150.203 27.0987 150.311 27.052 150.399 27.052C150.507 27.052 150.623 27.0987 150.749 27.192C150.88 27.2853 150.99 27.3973 151.078 27.528C151.172 27.654 151.218 27.7567 151.218 27.836C151.218 28.0413 151.165 28.3353 151.057 28.718C150.955 29.096 150.822 29.5043 150.658 29.943C150.77 29.8917 150.868 29.838 150.952 29.782C151.036 29.726 151.153 29.6397 151.302 29.523C151.512 29.593 151.666 29.6933 151.764 29.824C151.862 29.95 151.911 30.0877 151.911 30.237C151.911 30.3583 151.832 30.4773 151.673 30.594C151.519 30.7107 151.33 30.8087 151.106 30.888C150.882 30.9627 150.684 31 150.511 31ZM153.373 30.076C153.811 30.0573 154.217 29.831 154.591 29.397C154.819 29.439 155.001 29.5253 155.137 29.656C155.277 29.7867 155.347 29.9523 155.347 30.153C155.347 30.2977 155.263 30.4353 155.095 30.566C154.931 30.6967 154.726 30.8017 154.479 30.881C154.231 30.9603 153.993 31 153.765 31C153.541 31 153.307 30.9277 153.065 30.783C152.822 30.6337 152.621 30.4517 152.463 30.237C152.304 30.0223 152.225 29.8193 152.225 29.628C152.225 29.2593 152.309 28.8743 152.477 28.473C152.649 28.067 152.887 27.7287 153.191 27.458C153.494 27.1873 153.835 27.052 154.213 27.052C154.446 27.052 154.668 27.094 154.878 27.178C155.088 27.262 155.256 27.374 155.382 27.514C155.508 27.654 155.571 27.7987 155.571 27.948C155.571 28.0927 155.508 28.2233 155.382 28.34C155.256 28.452 155.09 28.508 154.885 28.508C154.819 28.508 154.752 28.501 154.682 28.487C154.565 28.2023 154.437 28.0017 154.297 27.885C153.989 28.0857 153.755 28.3657 153.597 28.725C153.438 29.0843 153.359 29.4507 153.359 29.824C153.359 29.88 153.363 29.964 153.373 30.076ZM156.849 31C156.714 31 156.562 30.9603 156.394 30.881C156.231 30.797 156.091 30.7013 155.974 30.594C155.857 30.482 155.799 30.3863 155.799 30.307C155.799 30.2277 155.832 30.0317 155.897 29.719C155.962 29.4063 156.004 29.2057 156.023 29.117C156.163 28.473 156.256 28.0273 156.303 27.78L156.373 27.388C156.471 26.8467 156.56 26.4103 156.639 26.079C156.723 25.7477 156.807 25.582 156.891 25.582C156.989 25.582 157.117 25.624 157.276 25.708C157.439 25.792 157.582 25.89 157.703 26.002C157.824 26.114 157.885 26.212 157.885 26.296C157.885 26.408 157.864 26.5177 157.822 26.625C157.785 26.7277 157.726 26.863 157.647 27.031C157.572 27.1757 157.521 27.2877 157.493 27.367C157.404 27.6423 157.309 28.025 157.206 28.515C157.108 29.005 157.026 29.4787 156.961 29.936C157.11 29.8613 157.227 29.7983 157.311 29.747C157.395 29.691 157.493 29.6163 157.605 29.523C157.81 29.593 157.962 29.691 158.06 29.817C158.163 29.9383 158.214 30.0783 158.214 30.237C158.214 30.349 158.135 30.4657 157.976 30.587C157.817 30.7037 157.628 30.8017 157.409 30.881C157.19 30.9603 157.003 31 156.849 31ZM160.068 31C159.844 31 159.61 30.9277 159.368 30.783C159.125 30.6337 158.924 30.4517 158.766 30.237C158.607 30.0223 158.528 29.8193 158.528 29.628C158.528 29.2873 158.607 28.914 158.766 28.508C158.929 28.102 159.153 27.759 159.438 27.479C159.722 27.1943 160.044 27.052 160.404 27.052C160.66 27.052 160.891 27.108 161.097 27.22C161.307 27.332 161.47 27.472 161.587 27.64C161.703 27.808 161.762 27.9713 161.762 28.13C161.762 28.326 161.673 28.5197 161.496 28.711C161.318 28.8977 161.071 29.0633 160.754 29.208C160.436 29.348 160.075 29.4483 159.669 29.509C159.664 29.565 159.662 29.649 159.662 29.761C159.662 29.901 159.666 30.006 159.676 30.076C159.909 30.0527 160.14 29.9897 160.369 29.887C160.597 29.7843 160.847 29.6397 161.118 29.453C161.3 29.509 161.437 29.5977 161.531 29.719C161.624 29.8403 161.671 29.985 161.671 30.153C161.671 30.293 161.584 30.4307 161.412 30.566C161.244 30.6967 161.034 30.8017 160.782 30.881C160.53 30.9603 160.292 31 160.068 31ZM159.774 28.984C160.058 28.8813 160.296 28.7507 160.488 28.592C160.679 28.4333 160.775 28.298 160.775 28.186C160.775 28.0553 160.684 27.9667 160.502 27.92C160.324 28.0507 160.173 28.207 160.047 28.389C159.925 28.571 159.834 28.7693 159.774 28.984ZM166.234 27.843C166.272 27.6097 166.29 27.423 166.29 27.283C166.29 27.185 166.281 27.108 166.262 27.052C166.248 26.996 166.23 26.968 166.206 26.968C166.136 26.968 166.055 27.0263 165.961 27.143C165.873 27.2597 165.796 27.3997 165.73 27.563C165.67 27.7217 165.639 27.864 165.639 27.99C165.639 28.1487 165.716 28.3097 165.87 28.473C166.029 28.6317 166.26 28.8277 166.563 29.061C166.792 29.229 166.962 29.369 167.074 29.481C167.186 29.5883 167.245 29.6863 167.249 29.775C167.254 29.971 167.151 30.1647 166.941 30.356C166.731 30.5427 166.468 30.6967 166.15 30.818C165.838 30.9393 165.546 31 165.275 31C165.065 31 164.848 30.9487 164.624 30.846C164.4 30.7387 164.214 30.615 164.064 30.475C163.915 30.3303 163.838 30.2043 163.833 30.097C163.824 29.8917 163.892 29.726 164.036 29.6C164.181 29.4693 164.375 29.404 164.617 29.404C164.739 29.404 164.862 29.4203 164.988 29.453C165.044 29.761 165.093 29.9827 165.135 30.118C165.411 30.048 165.709 29.9267 166.031 29.754C164.991 28.9653 164.47 28.3493 164.47 27.906C164.47 27.6913 164.55 27.4347 164.708 27.136C164.867 26.8327 165.077 26.5737 165.338 26.359C165.6 26.1397 165.875 26.03 166.164 26.03C166.379 26.03 166.587 26.1023 166.787 26.247C166.988 26.3917 167.151 26.569 167.277 26.779C167.403 26.989 167.466 27.185 167.466 27.367C167.466 27.5443 167.394 27.6867 167.249 27.794C167.109 27.8967 166.934 27.948 166.724 27.948C166.561 27.948 166.398 27.913 166.234 27.843ZM169.228 27.045C169.56 27.0823 169.861 27.1827 170.131 27.346C170.407 27.5047 170.621 27.696 170.775 27.92C170.929 28.144 171.006 28.368 171.006 28.592C171.006 28.928 170.92 29.285 170.747 29.663C170.575 30.041 170.334 30.3583 170.026 30.615C169.718 30.8717 169.375 31 168.997 31C168.811 31 168.612 30.9323 168.402 30.797C168.192 30.657 168.015 30.489 167.87 30.293C167.73 30.0923 167.66 29.915 167.66 29.761C167.66 29.4763 167.695 29.1847 167.765 28.886C167.835 28.5827 167.943 28.2887 168.087 28.004C168.223 27.9293 168.358 27.892 168.493 27.892C168.554 27.892 168.61 27.899 168.661 27.913C168.643 27.857 168.633 27.7917 168.633 27.717C168.633 27.5677 168.685 27.4323 168.787 27.311C168.895 27.1897 169.042 27.101 169.228 27.045ZM168.745 30.202C169.133 30.0713 169.434 29.8473 169.648 29.53C169.863 29.2127 170.005 28.8347 170.075 28.396C169.865 28.2467 169.581 28.172 169.221 28.172C169.133 28.172 169.065 28.1743 169.018 28.179C169.07 28.2723 169.095 28.3773 169.095 28.494C168.974 28.6853 168.881 28.8977 168.815 29.131C168.75 29.3597 168.717 29.5907 168.717 29.824C168.717 29.964 168.727 30.09 168.745 30.202ZM172.257 31C172.122 31 171.97 30.9603 171.802 30.881C171.639 30.797 171.499 30.7013 171.382 30.594C171.266 30.482 171.207 30.3863 171.207 30.307C171.207 30.2277 171.24 30.0317 171.305 29.719C171.371 29.4063 171.413 29.2057 171.431 29.117C171.571 28.473 171.665 28.0273 171.711 27.78L171.781 27.388C171.879 26.8467 171.968 26.4103 172.047 26.079C172.131 25.7477 172.215 25.582 172.299 25.582C172.397 25.582 172.526 25.624 172.684 25.708C172.848 25.792 172.99 25.89 173.111 26.002C173.233 26.114 173.293 26.212 173.293 26.296C173.293 26.408 173.272 26.5177 173.23 26.625C173.193 26.7277 173.135 26.863 173.055 27.031C172.981 27.1757 172.929 27.2877 172.901 27.367C172.813 27.6423 172.717 28.025 172.614 28.515C172.516 29.005 172.435 29.4787 172.369 29.936C172.519 29.8613 172.635 29.7983 172.719 29.747C172.803 29.691 172.901 29.6163 173.013 29.523C173.219 29.593 173.37 29.691 173.468 29.817C173.571 29.9383 173.622 30.0783 173.622 30.237C173.622 30.349 173.543 30.4657 173.384 30.587C173.226 30.7037 173.037 30.8017 172.817 30.881C172.598 30.9603 172.411 31 172.257 31ZM174.958 31C174.836 31 174.703 30.9557 174.559 30.867C174.419 30.7737 174.3 30.6687 174.202 30.552C174.104 30.4307 174.055 30.3327 174.055 30.258C174.055 30.1833 174.076 30.076 174.118 29.936C174.164 29.796 174.211 29.656 174.258 29.516C174.309 29.376 174.342 29.2873 174.356 29.25C174.416 29.0867 174.47 28.9327 174.517 28.788C174.568 28.6433 174.594 28.5453 174.594 28.494C174.594 28.4567 174.57 28.417 174.524 28.375C174.482 28.3283 174.416 28.2723 174.328 28.207C174.225 28.1277 174.148 28.0647 174.097 28.018C174.05 27.9713 174.027 27.9223 174.027 27.871C174.027 27.773 174.071 27.6587 174.16 27.528C174.253 27.3973 174.36 27.2853 174.482 27.192C174.608 27.0987 174.715 27.052 174.804 27.052C174.902 27.052 175.014 27.0963 175.14 27.185C175.27 27.2737 175.382 27.3763 175.476 27.493C175.574 27.605 175.623 27.6913 175.623 27.752C175.623 28.0413 175.574 28.389 175.476 28.795C175.378 29.201 175.252 29.6047 175.098 30.006C175.406 29.7493 175.681 29.4647 175.924 29.152C176.166 28.8393 176.337 28.5593 176.435 28.312C176.444 28.0087 176.479 27.7543 176.54 27.549C176.605 27.3437 176.68 27.241 176.764 27.241C176.885 27.241 177.018 27.2853 177.163 27.374C177.312 27.458 177.438 27.5583 177.541 27.675C177.643 27.787 177.695 27.8757 177.695 27.941C177.69 28.039 177.646 28.2233 177.562 28.494C177.478 28.76 177.361 29.103 177.212 29.523C177.123 29.7843 177.072 29.9337 177.058 29.971C177.193 29.9103 177.314 29.8473 177.422 29.782C177.534 29.712 177.65 29.6257 177.772 29.523C177.977 29.593 178.129 29.691 178.227 29.817C178.329 29.9383 178.381 30.0783 178.381 30.237C178.381 30.349 178.301 30.4657 178.143 30.587C177.984 30.7037 177.795 30.8017 177.576 30.881C177.356 30.9603 177.17 31 177.016 31C176.918 31 176.801 30.9603 176.666 30.881C176.53 30.797 176.409 30.7037 176.302 30.601C176.199 30.4937 176.148 30.4143 176.148 30.363C176.148 30.3117 176.164 30.2487 176.197 30.174C176.234 30.0993 176.274 30.02 176.316 29.936C176.362 29.8473 176.397 29.7843 176.421 29.747L176.246 29.649C175.989 30.1203 175.767 30.4633 175.581 30.678C175.399 30.8927 175.191 31 174.958 31ZM180.248 28.249C180.094 28.9537 179.993 29.5277 179.947 29.971C180.245 29.8263 180.486 29.677 180.668 29.523C180.873 29.593 181.025 29.691 181.123 29.817C181.225 29.9383 181.277 30.0783 181.277 30.237C181.277 30.349 181.197 30.4657 181.039 30.587C180.88 30.7037 180.691 30.8017 180.472 30.881C180.252 30.9603 180.066 31 179.912 31C179.776 31 179.625 30.9603 179.457 30.881C179.293 30.797 179.153 30.7013 179.037 30.594C178.92 30.482 178.862 30.3863 178.862 30.307C178.862 30.2417 178.885 30.1017 178.932 29.887C178.983 29.6677 179.027 29.481 179.065 29.327C179.107 29.1683 179.137 29.0517 179.156 28.977L179.324 28.305L178.897 28.333C178.817 28.2957 178.757 28.2373 178.715 28.158C178.673 28.0787 178.652 27.9877 178.652 27.885C178.652 27.6983 178.719 27.5397 178.855 27.409C179.023 27.4183 179.228 27.4277 179.471 27.437C179.471 27.1383 179.503 26.8093 179.569 26.45C179.634 26.086 179.706 25.904 179.786 25.904C179.884 25.904 180.007 25.946 180.157 26.03C180.306 26.114 180.437 26.212 180.549 26.324C180.661 26.436 180.717 26.534 180.717 26.618C180.717 26.7253 180.696 26.835 180.654 26.947C180.616 27.0543 180.553 27.2037 180.465 27.395C180.544 27.3857 180.745 27.353 181.067 27.297L181.228 27.269C181.312 27.3157 181.375 27.3833 181.417 27.472C181.463 27.5607 181.487 27.6563 181.487 27.759C181.487 27.843 181.47 27.9247 181.438 28.004C181.405 28.0833 181.356 28.151 181.291 28.207L180.248 28.249ZM183.185 26.849C183.096 26.849 182.989 26.814 182.863 26.744C182.741 26.6693 182.636 26.583 182.548 26.485C182.459 26.3823 182.415 26.2913 182.415 26.212C182.415 26.086 182.447 25.96 182.513 25.834C182.578 25.708 182.66 25.617 182.758 25.561C182.804 25.5377 182.879 25.526 182.982 25.526C183.15 25.526 183.318 25.5633 183.486 25.638C183.658 25.7127 183.763 25.806 183.801 25.918C183.81 25.9413 183.815 25.9763 183.815 26.023C183.815 26.1303 183.782 26.2493 183.717 26.38C183.651 26.5107 183.57 26.6227 183.472 26.716C183.374 26.8047 183.278 26.849 183.185 26.849ZM182.709 31C182.587 31 182.45 30.9603 182.296 30.881C182.146 30.797 182.016 30.7013 181.904 30.594C181.796 30.482 181.743 30.3887 181.743 30.314C181.743 30.23 181.773 30.1063 181.834 29.943C181.894 29.7797 181.985 29.5557 182.107 29.271C182.2 29.0517 182.27 28.8813 182.317 28.76C182.363 28.634 182.387 28.5453 182.387 28.494C182.387 28.4567 182.363 28.417 182.317 28.375C182.275 28.3283 182.209 28.2723 182.121 28.207C182.018 28.1277 181.941 28.0647 181.89 28.018C181.843 27.9713 181.82 27.9223 181.82 27.871C181.82 27.773 181.864 27.6587 181.953 27.528C182.046 27.3973 182.153 27.2853 182.275 27.192C182.401 27.0987 182.508 27.052 182.597 27.052C182.704 27.052 182.821 27.0987 182.947 27.192C183.077 27.2853 183.187 27.3973 183.276 27.528C183.369 27.654 183.416 27.7567 183.416 27.836C183.416 28.0413 183.362 28.3353 183.255 28.718C183.152 29.096 183.019 29.5043 182.856 29.943C182.968 29.8917 183.066 29.838 183.15 29.782C183.234 29.726 183.35 29.6397 183.5 29.523C183.71 29.593 183.864 29.6933 183.962 29.824C184.06 29.95 184.109 30.0877 184.109 30.237C184.109 30.3583 184.029 30.4773 183.871 30.594C183.717 30.7107 183.528 30.8087 183.304 30.888C183.08 30.9627 182.881 31 182.709 31ZM185.983 27.045C186.314 27.0823 186.615 27.1827 186.886 27.346C187.161 27.5047 187.376 27.696 187.53 27.92C187.684 28.144 187.761 28.368 187.761 28.592C187.761 28.928 187.675 29.285 187.502 29.663C187.329 30.041 187.089 30.3583 186.781 30.615C186.473 30.8717 186.13 31 185.752 31C185.565 31 185.367 30.9323 185.157 30.797C184.947 30.657 184.77 30.489 184.625 30.293C184.485 30.0923 184.415 29.915 184.415 29.761C184.415 29.4763 184.45 29.1847 184.52 28.886C184.59 28.5827 184.697 28.2887 184.842 28.004C184.977 27.9293 185.113 27.892 185.248 27.892C185.309 27.892 185.365 27.899 185.416 27.913C185.397 27.857 185.388 27.7917 185.388 27.717C185.388 27.5677 185.439 27.4323 185.542 27.311C185.649 27.1897 185.796 27.101 185.983 27.045ZM185.5 30.202C185.887 30.0713 186.188 29.8473 186.403 29.53C186.618 29.2127 186.76 28.8347 186.83 28.396C186.62 28.2467 186.335 28.172 185.976 28.172C185.887 28.172 185.82 28.1743 185.773 28.179C185.824 28.2723 185.85 28.3773 185.85 28.494C185.729 28.6853 185.635 28.8977 185.57 29.131C185.505 29.3597 185.472 29.5907 185.472 29.824C185.472 29.964 185.481 30.09 185.5 30.202ZM191.693 29.523C191.899 29.593 192.05 29.691 192.148 29.817C192.251 29.9383 192.302 30.0783 192.302 30.237C192.302 30.349 192.223 30.4657 192.064 30.587C191.906 30.7037 191.717 30.8017 191.497 30.881C191.278 30.9603 191.091 31 190.937 31C190.83 31 190.706 30.958 190.566 30.874C190.426 30.79 190.305 30.6943 190.202 30.587C190.104 30.475 190.055 30.3887 190.055 30.328C190.055 30.2813 190.107 30.0993 190.209 29.782C190.391 29.2267 190.482 28.8767 190.482 28.732C190.482 28.676 190.468 28.648 190.44 28.648C190.254 28.648 189.906 28.9747 189.397 29.628C189.379 29.7027 189.358 29.796 189.334 29.908C189.316 30.02 189.302 30.0993 189.292 30.146C189.241 30.4213 189.192 30.6337 189.145 30.783C189.103 30.9277 189.047 31 188.977 31C188.856 31 188.718 30.9603 188.564 30.881C188.415 30.797 188.284 30.7013 188.172 30.594C188.065 30.482 188.011 30.3887 188.011 30.314C188.011 30.23 188.042 30.1063 188.102 29.943C188.163 29.7797 188.254 29.5557 188.375 29.271C188.469 29.0517 188.539 28.8813 188.585 28.76C188.632 28.634 188.655 28.5453 188.655 28.494C188.655 28.4567 188.632 28.417 188.585 28.375C188.543 28.3283 188.478 28.2723 188.389 28.207C188.287 28.1277 188.21 28.0647 188.158 28.018C188.112 27.9713 188.088 27.9223 188.088 27.871C188.088 27.773 188.133 27.6587 188.221 27.528C188.315 27.3973 188.422 27.2853 188.543 27.192C188.669 27.0987 188.777 27.052 188.865 27.052C188.963 27.052 189.075 27.0963 189.201 27.185C189.332 27.2737 189.444 27.3763 189.537 27.493C189.635 27.605 189.684 27.6913 189.684 27.752C189.684 27.864 189.67 28.0017 189.642 28.165C189.619 28.3283 189.586 28.4893 189.544 28.648C189.885 28.2 190.167 27.8547 190.391 27.612C190.615 27.3647 190.79 27.241 190.916 27.241C191.005 27.241 191.112 27.2853 191.238 27.374C191.364 27.4627 191.472 27.5653 191.56 27.682C191.654 27.794 191.7 27.8803 191.7 27.941C191.696 28.0203 191.663 28.1557 191.602 28.347C191.542 28.5383 191.455 28.7927 191.343 29.11C191.194 29.5207 191.098 29.7983 191.056 29.943C191.201 29.8683 191.313 29.8053 191.392 29.754C191.476 29.698 191.577 29.621 191.693 29.523Z" fill="#84B5FF"/>
<g filter="url(#filter0_d_17007_2762)">
<path d="M40.5556 7.09112C38.4577 4.1942 35.703 2.21762 32.4135 1.02292C29.124 -0.171786 25.5682 -0.323636 22.1959 0.58657C18.8235 1.49678 15.786 3.42816 13.4674 6.13648C11.1489 8.84481 9.65348 12.2084 9.17027 15.802C8.68706 19.3956 9.23777 23.0577 10.7528 26.3252C12.2678 29.5928 14.679 32.3191 17.6815 34.1593C20.6841 35.9995 23.9368 36.5674 27.4148 36.3599V29.3548C25.2973 29.4811 23.0038 29.094 21.1758 27.9737C19.3478 26.8534 17.8798 25.1936 16.9575 23.2042C16.0351 21.2149 15.6998 18.9853 15.994 16.7975C16.2882 14.6096 16.9575 12.3424 18.2976 10.3409C19.6378 8.33943 21.3401 7.59181 23.2616 7.09112C25.1832 6.59043 23.2616 7.09112 32.0586 7.09112C34.4707 7.09112 34.7807 7.09112 36.0618 7.09112H38.3036H40.5556Z" fill="#000080"/>
</g>
<path d="M58.15 31.45C57.3333 31.45 56.6667 31.25 56.15 30.85C55.65 30.4667 55.4 29.9917 55.4 29.425C55.4 28.825 55.6083 28.3083 56.025 27.875C56.4417 27.4417 56.9917 27.075 57.675 26.775C58.375 26.475 59.1333 26.225 59.95 26.025C60.7667 25.8417 61.575 25.7 62.375 25.6C63.1917 25.5 63.9333 25.425 64.6 25.375C65.2667 25.3417 65.7833 25.325 66.15 25.325C66.35 25.325 66.575 25.325 66.825 25.325C67.0917 25.325 67.3667 25.3333 67.65 25.35C68.1 24.65 68.5167 23.8833 68.9 23.05C69.3 22.2167 69.6167 21.3667 69.85 20.5C69.3833 21.0333 68.8667 21.5667 68.3 22.1C67.7333 22.6333 67.225 23.0167 66.775 23.25C66.125 23.5667 65.3667 23.85 64.5 24.1C63.65 24.3667 62.8083 24.5 61.975 24.5C61.025 24.5 60.175 24.2583 59.425 23.775C58.675 23.275 58.1833 22.425 57.95 21.225C57.9333 21.125 57.9167 21.0083 57.9 20.875C57.8833 20.7417 57.875 20.6167 57.875 20.5C57.875 19.6333 58.075 18.7667 58.475 17.9C58.8917 17.0333 59.35 16.2667 59.85 15.6C59.0167 15.2667 58.325 14.8667 57.775 14.4C57.475 14.0833 57.225 13.7417 57.025 13.375C56.8417 12.9917 56.75 12.6417 56.75 12.325C56.75 11.825 56.925 11.4 57.275 11.05C57.625 10.7 58.1417 10.525 58.825 10.525C59.0583 10.525 59.325 10.55 59.625 10.6C59.925 10.6333 60.1667 10.6917 60.35 10.775C60.5167 10.8417 60.6 10.9667 60.6 11.15C60.6 11.2667 60.5583 11.375 60.475 11.475C60.4083 11.575 60.3083 11.625 60.175 11.625C60.1417 11.625 60.075 11.6083 59.975 11.575C59.775 11.4917 59.575 11.4417 59.375 11.425C59.175 11.3917 59.0083 11.375 58.875 11.375C58.4583 11.375 58.1417 11.4667 57.925 11.65C57.725 11.8167 57.625 12.0417 57.625 12.325C57.625 12.7083 57.85 13.15 58.3 13.65C58.7667 14.1333 59.475 14.55 60.425 14.9C61.2083 14.0667 62.125 13.2917 63.175 12.575C64.2417 11.8583 65.4083 11.2833 66.675 10.85C67.9583 10.4 69.3 10.175 70.7 10.175C72.0167 10.175 72.975 10.4083 73.575 10.875C74.1917 11.325 74.5 11.8667 74.5 12.5C74.5 13.1333 74.2 13.7833 73.6 14.45C73.0167 15.1 72.2333 15.5917 71.25 15.925C70.5833 16.1417 69.7833 16.3167 68.85 16.45C67.9167 16.5833 66.9417 16.65 65.925 16.65C65.0583 16.65 64.175 16.5917 63.275 16.475C62.3917 16.3417 61.5583 16.1583 60.775 15.925C60.5583 16.175 60.3667 16.425 60.2 16.675C59.7833 17.3917 59.4333 18.175 59.15 19.025C58.8833 19.8583 58.7833 20.55 58.85 21.1C59.0333 22.0333 59.4167 22.7 60 23.1C60.6 23.4833 61.275 23.675 62.025 23.675C62.7583 23.675 63.5167 23.5417 64.3 23.275C65.1 23.0083 65.7833 22.7417 66.35 22.475C66.6667 22.3083 67.025 22.05 67.425 21.7C67.825 21.35 68.2167 20.9667 68.6 20.55C69 20.1167 69.35 19.6917 69.65 19.275C69.9667 18.8583 70.1917 18.5 70.325 18.2C70.4083 18.0167 70.5333 17.925 70.7 17.925C70.8167 17.925 70.925 17.975 71.025 18.075C71.125 18.1583 71.175 18.2833 71.175 18.45C71.025 19.5167 70.7333 20.6833 70.3 21.95C69.8667 23.2 69.325 24.3667 68.675 25.45C69.3583 25.55 70.0083 25.7 70.625 25.9C71.2583 26.1167 71.6667 26.4167 71.85 26.8C71.8833 26.85 71.9 26.925 71.9 27.025C71.9 27.1583 71.8583 27.275 71.775 27.375C71.6917 27.475 71.6 27.525 71.5 27.525C71.3833 27.525 71.3 27.4583 71.25 27.325C71.1 27.075 70.7083 26.8583 70.075 26.675C69.4417 26.5083 68.7833 26.375 68.1 26.275C67.9 26.5417 67.6917 26.8 67.475 27.05C67.275 27.3167 67.0583 27.5583 66.825 27.775C65.9583 28.575 65.025 29.2417 64.025 29.775C63.0417 30.325 62.0417 30.7417 61.025 31.025C60.025 31.3083 59.0667 31.45 58.15 31.45ZM66.05 15.775C66.9833 15.775 67.8667 15.725 68.7 15.625C69.55 15.5083 70.2917 15.3417 70.925 15.125C71.8583 14.8083 72.5333 14.4417 72.95 14.025C73.3833 13.5917 73.6 13.175 73.6 12.775C73.6 12.3083 73.35 11.9083 72.85 11.575C72.35 11.225 71.6333 11.05 70.7 11.05C68.9667 11.05 67.275 11.4333 65.625 12.2C63.975 12.95 62.5583 13.9583 61.375 15.225C62.075 15.425 62.825 15.5667 63.625 15.65C64.4417 15.7333 65.25 15.775 66.05 15.775ZM58.15 30.55C59.1833 30.55 60.2583 30.35 61.375 29.95C62.4917 29.5667 63.55 29.0417 64.55 28.375C65.55 27.725 66.3917 27.0083 67.075 26.225C66.8917 26.1917 66.7167 26.175 66.55 26.175C66.4 26.175 66.2667 26.175 66.15 26.175C64.8333 26.175 63.5 26.2667 62.15 26.45C60.8 26.6333 59.5083 26.9833 58.275 27.5C57.5417 27.7833 57.025 28.1 56.725 28.45C56.425 28.8167 56.275 29.1417 56.275 29.425C56.275 29.6583 56.4167 29.9 56.7 30.15C56.9833 30.4167 57.4667 30.55 58.15 30.55ZM74.6305 24.125C74.1638 24.125 73.8138 23.9917 73.5805 23.725C73.3638 23.4417 73.2555 23.0917 73.2555 22.675C73.2555 22.2083 73.3888 21.6667 73.6555 21.05C73.9388 20.4167 74.3055 19.7667 74.7555 19.1C75.2055 18.4333 75.6971 17.8167 76.2305 17.25C76.7805 16.6667 77.3305 16.2 77.8805 15.85C78.4305 15.4833 78.9388 15.3 79.4055 15.3C79.7221 15.3 80.0305 15.35 80.3305 15.45C80.6305 15.5333 80.8721 15.7083 81.0555 15.975C81.2555 16.2417 81.3555 16.6333 81.3555 17.15C81.3555 17.3333 81.3055 17.4667 81.2055 17.55C81.1055 17.6333 81.0138 17.675 80.9305 17.675C80.7471 17.675 80.6555 17.6083 80.6555 17.475C80.5721 16.9417 80.3971 16.5917 80.1305 16.425C79.8805 16.2583 79.6388 16.175 79.4055 16.175C79.0721 16.175 78.6805 16.3417 78.2305 16.675C77.7805 17.0083 77.3221 17.4333 76.8555 17.95C76.3888 18.4667 75.9471 19.025 75.5305 19.625C75.1305 20.2083 74.8055 20.775 74.5555 21.325C74.3055 21.8583 74.1805 22.3 74.1805 22.65C74.1805 22.8167 74.2055 22.9667 74.2555 23.1C74.3221 23.2333 74.4221 23.3 74.5555 23.3C74.8055 23.3 75.1305 23.1667 75.5305 22.9C75.9305 22.6333 76.3555 22.2917 76.8055 21.875C77.2721 21.4417 77.7305 20.9917 78.1805 20.525C78.6305 20.0583 79.0388 19.6167 79.4055 19.2C79.7721 18.7833 80.0555 18.45 80.2555 18.2C80.3555 18.05 80.4805 17.975 80.6305 17.975C80.7471 17.975 80.8555 18.0167 80.9555 18.1C81.0555 18.1833 81.1055 18.2917 81.1055 18.425C81.1055 18.4917 81.0805 18.5667 81.0305 18.65C80.9138 18.8333 80.7721 19.0917 80.6055 19.425C80.4555 19.7583 80.2971 20.1167 80.1305 20.5C79.9805 20.8833 79.8471 21.2417 79.7305 21.575C79.6305 21.8917 79.5805 22.1333 79.5805 22.3C79.5805 22.4667 79.6388 22.55 79.7555 22.55C79.8388 22.55 79.9388 22.5083 80.0555 22.425C80.1888 22.3417 80.3055 22.2667 80.4055 22.2C80.8055 21.8667 81.1888 21.5167 81.5555 21.15C81.9221 20.7667 82.2555 20.4083 82.5555 20.075C82.6221 19.9917 82.7055 19.95 82.8055 19.95C82.8888 19.95 82.9638 20 83.0305 20.1C83.1138 20.1833 83.1555 20.2917 83.1555 20.425C83.1555 20.575 83.1138 20.7 83.0305 20.8C82.7638 21.15 82.4138 21.5417 81.9805 21.975C81.5471 22.3917 81.1638 22.725 80.8305 22.975C80.6138 23.125 80.3555 23.275 80.0555 23.425C79.7721 23.5583 79.4971 23.625 79.2305 23.625C79.0305 23.625 78.8638 23.5667 78.7305 23.45C78.5971 23.3167 78.5305 23.0917 78.5305 22.775C78.5305 22.525 78.5721 22.2417 78.6555 21.925C78.7388 21.6083 78.8388 21.2833 78.9555 20.95C78.4888 21.45 77.9888 21.9417 77.4555 22.425C76.9221 22.9083 76.4055 23.3167 75.9055 23.65C75.4221 23.9667 74.9971 24.125 74.6305 24.125ZM82.9801 24.125C82.5134 24.125 82.1634 23.9917 81.9301 23.725C81.7134 23.4417 81.6051 23.0917 81.6051 22.675C81.6051 22.2083 81.7384 21.6667 82.0051 21.05C82.2884 20.4167 82.6551 19.7667 83.1051 19.1C83.5551 18.4333 84.0467 17.8167 84.5801 17.25C85.1301 16.6667 85.6801 16.2 86.2301 15.85C86.7801 15.4833 87.2884 15.3 87.7551 15.3C88.0884 15.3 88.4134 15.3583 88.7301 15.475C89.0634 15.575 89.3134 15.7917 89.4801 16.125C89.8967 15.1583 90.3967 14.2 90.9801 13.25C91.5634 12.2833 92.1634 11.4167 92.7801 10.65C93.4134 9.88333 94.0134 9.30833 94.5801 8.925C94.9967 8.64167 95.3717 8.5 95.7051 8.5C95.9717 8.5 96.1801 8.59167 96.3301 8.775C96.4967 8.94167 96.5801 9.2 96.5801 9.55C96.5801 10.2167 96.3967 10.925 96.0301 11.675C95.6801 12.425 95.2134 13.175 94.6301 13.925C94.0467 14.675 93.4134 15.4083 92.7301 16.125C92.0634 16.825 91.4134 17.4833 90.7801 18.1C90.1467 18.7 89.5967 19.225 89.1301 19.675C88.8634 20.125 88.6051 20.65 88.3551 21.25C88.1217 21.8333 88.0051 22.325 88.0051 22.725C88.0051 23.175 88.1801 23.4 88.5301 23.4C88.8134 23.4 89.2384 23.2667 89.8051 23C90.3884 22.7167 90.9551 22.3333 91.5051 21.85C91.8384 21.5667 92.1467 21.2667 92.4301 20.95C92.7134 20.6333 92.9801 20.3417 93.2301 20.075C93.2967 19.9917 93.3801 19.95 93.4801 19.95C93.5634 19.95 93.6384 20 93.7051 20.1C93.7884 20.1833 93.8301 20.2917 93.8301 20.425C93.8301 20.575 93.7884 20.7 93.7051 20.8C93.4551 21.15 93.1051 21.5417 92.6551 21.975C92.2217 22.3917 91.8384 22.725 91.5051 22.975C90.8717 23.4417 90.1884 23.7917 89.4551 24.025C89.0051 24.175 88.6051 24.25 88.2551 24.25C87.3384 24.25 86.8801 23.7917 86.8801 22.875C86.8801 22.4917 86.9634 22.0583 87.1301 21.575C87.1301 21.5583 87.1384 21.5417 87.1551 21.525C86.6384 21.9583 86.1051 22.375 85.5551 22.775C85.0217 23.175 84.5217 23.5 84.0551 23.75C83.5884 24 83.2301 24.125 82.9801 24.125ZM89.5301 17.975C89.6967 17.8417 89.9884 17.575 90.4051 17.175C90.8217 16.775 91.2967 16.3 91.8301 15.75C92.3801 15.1833 92.9217 14.575 93.4551 13.925C93.9884 13.275 94.4551 12.625 94.8551 11.975C95.2551 11.325 95.5301 10.7167 95.6801 10.15C95.6967 10.0833 95.7051 10 95.7051 9.9C95.7051 9.65 95.6051 9.525 95.4051 9.525C95.1551 9.525 94.8634 9.69167 94.5301 10.025C93.8801 10.6583 93.2467 11.425 92.6301 12.325C92.0301 13.2083 91.4634 14.1417 90.9301 15.125C90.4134 16.0917 89.9467 17.0417 89.5301 17.975ZM82.9051 23.3C83.1384 23.3 83.4384 23.1917 83.8051 22.975C84.1884 22.7583 84.5967 22.4833 85.0301 22.15C85.4634 21.8167 85.8884 21.4667 86.3051 21.1C86.7384 20.7333 87.1217 20.3917 87.4551 20.075C87.7884 19.7583 88.0384 19.5167 88.2051 19.35L88.9551 17.225C88.8384 16.7917 88.6634 16.5083 88.4301 16.375C88.1967 16.2417 87.9717 16.175 87.7551 16.175C87.4217 16.175 87.0301 16.3417 86.5801 16.675C86.1301 17.0083 85.6717 17.4333 85.2051 17.95C84.7384 18.4667 84.2967 19.025 83.8801 19.625C83.4801 20.2083 83.1551 20.775 82.9051 21.325C82.6551 21.8583 82.5301 22.3 82.5301 22.65C82.5301 22.8167 82.5551 22.9667 82.6051 23.1C82.6717 23.2333 82.7717 23.3 82.9051 23.3ZM97.974 16.225C97.774 16.225 97.5907 16.1583 97.424 16.025C97.274 15.875 97.199 15.6917 97.199 15.475C97.199 15.2417 97.274 15.05 97.424 14.9C97.574 14.75 97.7574 14.675 97.974 14.675C98.2074 14.675 98.399 14.75 98.549 14.9C98.699 15.05 98.774 15.2417 98.774 15.475C98.774 15.6917 98.6907 15.875 98.524 16.025C98.374 16.1583 98.1907 16.225 97.974 16.225ZM94.274 23.725C94.0574 23.725 93.8824 23.6667 93.749 23.55C93.6157 23.4167 93.549 23.2083 93.549 22.925C93.549 22.575 93.6324 22.15 93.799 21.65C93.9657 21.1333 94.1824 20.6083 94.449 20.075C94.7157 19.525 94.999 19.025 95.299 18.575C95.6157 18.1083 95.9157 17.7417 96.199 17.475C96.3157 17.3583 96.4574 17.3 96.624 17.3C96.7574 17.3 96.874 17.3333 96.974 17.4C97.074 17.4667 97.124 17.55 97.124 17.65C97.124 17.7333 97.0824 17.8167 96.999 17.9C96.8824 18.0167 96.7324 18.2083 96.549 18.475C96.3824 18.725 96.2157 18.9917 96.049 19.275C95.8824 19.5417 95.7574 19.7667 95.674 19.95C95.524 20.2667 95.3574 20.625 95.174 21.025C94.9907 21.425 94.8574 21.75 94.774 22C94.724 22.1667 94.699 22.2917 94.699 22.375C94.699 22.5583 94.7657 22.65 94.899 22.65C95.0157 22.65 95.149 22.6 95.299 22.5C95.449 22.3833 95.5824 22.2833 95.699 22.2C96.1157 21.8667 96.499 21.5167 96.849 21.15C97.2157 20.7667 97.549 20.4083 97.849 20.075C97.9157 19.9917 97.999 19.95 98.099 19.95C98.1824 19.95 98.2574 20 98.324 20.1C98.4074 20.1833 98.449 20.2917 98.449 20.425C98.449 20.575 98.4074 20.7 98.324 20.8C98.074 21.15 97.724 21.5417 97.274 21.975C96.8407 22.3917 96.4574 22.725 96.124 22.975C95.9074 23.1417 95.6157 23.3083 95.249 23.475C94.899 23.6417 94.574 23.725 94.274 23.725ZM98.0383 23.825C97.6716 23.825 97.3966 23.7 97.2133 23.45C97.0299 23.1833 96.9383 22.8667 96.9383 22.5C96.9383 22.2167 96.9883 21.925 97.0883 21.625C97.2716 21.125 97.5133 20.6333 97.8133 20.15C98.1133 19.65 98.4466 19.1417 98.8133 18.625C98.8799 18.5083 98.9883 18.3167 99.1383 18.05C99.2883 17.7833 99.4216 17.5083 99.5383 17.225C99.6716 16.9417 99.7216 16.725 99.6883 16.575C99.6549 16.275 99.6883 16.0667 99.7883 15.95C99.8883 15.8167 100.005 15.75 100.138 15.75C100.305 15.75 100.447 15.8333 100.563 16C100.63 16.1333 100.663 16.3167 100.663 16.55C100.663 16.8 100.605 17.1167 100.488 17.5C100.388 17.8667 100.188 18.275 99.8883 18.725C99.6216 19.125 99.3299 19.55 99.0133 20C98.7133 20.45 98.4549 20.8917 98.2383 21.325C98.0383 21.7417 97.9383 22.1167 97.9383 22.45C97.9383 22.75 98.0383 22.9 98.2383 22.9C98.3383 22.9 98.4883 22.85 98.6883 22.75C98.9383 22.6167 99.3133 22.3667 99.8133 22C100.313 21.6333 100.838 21.2167 101.388 20.75C101.955 20.2833 102.472 19.825 102.938 19.375C103.405 18.925 103.73 18.5583 103.913 18.275C103.997 18.125 104.147 18.05 104.363 18.05C104.513 18.05 104.63 18.0917 104.713 18.175C104.813 18.2583 104.822 18.3667 104.738 18.5C104.555 19.1833 104.263 19.9917 103.863 20.925C103.463 21.8583 103.013 22.825 102.513 23.825C102.797 23.825 103.088 23.8667 103.388 23.95C103.588 24 103.688 24.125 103.688 24.325C103.688 24.4583 103.63 24.5833 103.513 24.7C103.413 24.8167 103.28 24.85 103.113 24.8C102.997 24.7667 102.88 24.7417 102.763 24.725C102.647 24.7083 102.522 24.7 102.388 24.7C102.272 24.7 102.163 24.7 102.063 24.7C101.547 25.7 101.013 26.65 100.463 27.55C99.9133 28.4667 99.4049 29.25 98.9383 29.9C98.5049 30.5 98.0133 31.075 97.4633 31.625C96.9299 32.175 96.3716 32.625 95.7883 32.975C95.1883 33.325 94.5883 33.5 93.9883 33.5C93.3383 33.5 92.8383 33.3417 92.4883 33.025C92.1383 32.7083 91.9633 32.2917 91.9633 31.775C91.9633 31.2583 92.1133 30.6833 92.4133 30.05C92.6966 29.4167 93.0799 28.7833 93.5633 28.15C94.1299 27.4333 94.8383 26.7667 95.6883 26.15C96.5216 25.55 97.4383 25.0417 98.4383 24.625C99.4383 24.225 100.455 23.975 101.488 23.875C101.788 23.2917 102.063 22.7333 102.313 22.2C102.58 21.65 102.813 21.1417 103.013 20.675C102.347 21.2917 101.638 21.8583 100.888 22.375C100.138 22.8917 99.5216 23.275 99.0383 23.525C98.6716 23.725 98.3383 23.825 98.0383 23.825ZM94.0883 32.625C94.6216 32.625 95.1883 32.4 95.7883 31.95C96.3716 31.5167 96.9633 30.9167 97.5633 30.15C98.1799 29.4 98.7799 28.5583 99.3633 27.625C99.9466 26.7083 100.497 25.7667 101.013 24.8C99.6966 25 98.4299 25.45 97.2133 26.15C95.9966 26.85 95.0216 27.6833 94.2883 28.65C94.1383 28.85 93.9549 29.125 93.7383 29.475C93.5049 29.825 93.3049 30.1917 93.1383 30.575C92.9716 30.9583 92.8883 31.3167 92.8883 31.65C92.8883 31.9333 92.9799 32.1667 93.1633 32.35C93.3299 32.5333 93.6383 32.625 94.0883 32.625ZM106.637 24.125C106.171 24.125 105.821 23.9917 105.587 23.725C105.371 23.4417 105.262 23.0917 105.262 22.675C105.262 22.2083 105.396 21.6667 105.662 21.05C105.946 20.4167 106.312 19.7667 106.762 19.1C107.212 18.4333 107.704 17.8167 108.237 17.25C108.787 16.6667 109.337 16.2 109.887 15.85C110.437 15.4833 110.946 15.3 111.412 15.3C111.729 15.3 112.037 15.35 112.337 15.45C112.637 15.5333 112.879 15.7083 113.062 15.975C113.262 16.2417 113.362 16.6333 113.362 17.15C113.362 17.3333 113.312 17.4667 113.212 17.55C113.112 17.6333 113.021 17.675 112.937 17.675C112.754 17.675 112.662 17.6083 112.662 17.475C112.579 16.9417 112.404 16.5917 112.137 16.425C111.887 16.2583 111.646 16.175 111.412 16.175C111.079 16.175 110.687 16.3417 110.237 16.675C109.787 17.0083 109.329 17.4333 108.862 17.95C108.396 18.4667 107.954 19.025 107.537 19.625C107.137 20.2083 106.812 20.775 106.562 21.325C106.312 21.8583 106.187 22.3 106.187 22.65C106.187 22.8167 106.212 22.9667 106.262 23.1C106.329 23.2333 106.429 23.3 106.562 23.3C106.812 23.3 107.137 23.1667 107.537 22.9C107.937 22.6333 108.362 22.2917 108.812 21.875C109.279 21.4417 109.737 20.9917 110.187 20.525C110.637 20.0583 111.046 19.6167 111.412 19.2C111.779 18.7833 112.062 18.45 112.262 18.2C112.362 18.05 112.487 17.975 112.637 17.975C112.754 17.975 112.862 18.0167 112.962 18.1C113.062 18.1833 113.112 18.2917 113.112 18.425C113.112 18.4917 113.087 18.5667 113.037 18.65C112.921 18.8333 112.779 19.0917 112.612 19.425C112.462 19.7583 112.304 20.1167 112.137 20.5C111.987 20.8833 111.854 21.2417 111.737 21.575C111.637 21.8917 111.587 22.1333 111.587 22.3C111.587 22.4667 111.646 22.55 111.762 22.55C111.846 22.55 111.946 22.5083 112.062 22.425C112.196 22.3417 112.312 22.2667 112.412 22.2C112.812 21.8667 113.196 21.5167 113.562 21.15C113.929 20.7667 114.262 20.4083 114.562 20.075C114.629 19.9917 114.712 19.95 114.812 19.95C114.896 19.95 114.971 20 115.037 20.1C115.121 20.1833 115.162 20.2917 115.162 20.425C115.162 20.575 115.121 20.7 115.037 20.8C114.771 21.15 114.421 21.5417 113.987 21.975C113.554 22.3917 113.171 22.725 112.837 22.975C112.621 23.125 112.362 23.275 112.062 23.425C111.779 23.5583 111.504 23.625 111.237 23.625C111.037 23.625 110.871 23.5667 110.737 23.45C110.604 23.3167 110.537 23.0917 110.537 22.775C110.537 22.525 110.579 22.2417 110.662 21.925C110.746 21.6083 110.846 21.2833 110.962 20.95C110.496 21.45 109.996 21.9417 109.462 22.425C108.929 22.9083 108.412 23.3167 107.912 23.65C107.429 23.9667 107.004 24.125 106.637 24.125ZM114.987 24.125C114.52 24.125 114.17 23.9917 113.937 23.725C113.72 23.4417 113.612 23.0917 113.612 22.675C113.612 22.2083 113.745 21.6667 114.012 21.05C114.295 20.4167 114.662 19.7667 115.112 19.1C115.562 18.4333 116.054 17.8167 116.587 17.25C117.137 16.6667 117.687 16.2 118.237 15.85C118.787 15.4833 119.295 15.3 119.762 15.3C120.095 15.3 120.42 15.3583 120.737 15.475C121.07 15.575 121.32 15.7917 121.487 16.125C121.904 15.1583 122.404 14.2 122.987 13.25C123.57 12.2833 124.17 11.4167 124.787 10.65C125.42 9.88333 126.02 9.30833 126.587 8.925C127.004 8.64167 127.379 8.5 127.712 8.5C127.979 8.5 128.187 8.59167 128.337 8.775C128.504 8.94167 128.587 9.2 128.587 9.55C128.587 10.2167 128.404 10.925 128.037 11.675C127.687 12.425 127.22 13.175 126.637 13.925C126.054 14.675 125.42 15.4083 124.737 16.125C124.07 16.825 123.42 17.4833 122.787 18.1C122.154 18.7 121.604 19.225 121.137 19.675C120.87 20.125 120.612 20.65 120.362 21.25C120.129 21.8333 120.012 22.325 120.012 22.725C120.012 23.175 120.187 23.4 120.537 23.4C120.82 23.4 121.245 23.2667 121.812 23C122.395 22.7167 122.962 22.3333 123.512 21.85C123.845 21.5667 124.154 21.2667 124.437 20.95C124.72 20.6333 124.987 20.3417 125.237 20.075C125.304 19.9917 125.387 19.95 125.487 19.95C125.57 19.95 125.645 20 125.712 20.1C125.795 20.1833 125.837 20.2917 125.837 20.425C125.837 20.575 125.795 20.7 125.712 20.8C125.462 21.15 125.112 21.5417 124.662 21.975C124.229 22.3917 123.845 22.725 123.512 22.975C122.879 23.4417 122.195 23.7917 121.462 24.025C121.012 24.175 120.612 24.25 120.262 24.25C119.345 24.25 118.887 23.7917 118.887 22.875C118.887 22.4917 118.97 22.0583 119.137 21.575C119.137 21.5583 119.145 21.5417 119.162 21.525C118.645 21.9583 118.112 22.375 117.562 22.775C117.029 23.175 116.529 23.5 116.062 23.75C115.595 24 115.237 24.125 114.987 24.125ZM121.537 17.975C121.704 17.8417 121.995 17.575 122.412 17.175C122.829 16.775 123.304 16.3 123.837 15.75C124.387 15.1833 124.929 14.575 125.462 13.925C125.995 13.275 126.462 12.625 126.862 11.975C127.262 11.325 127.537 10.7167 127.687 10.15C127.704 10.0833 127.712 10 127.712 9.9C127.712 9.65 127.612 9.525 127.412 9.525C127.162 9.525 126.87 9.69167 126.537 10.025C125.887 10.6583 125.254 11.425 124.637 12.325C124.037 13.2083 123.47 14.1417 122.937 15.125C122.42 16.0917 121.954 17.0417 121.537 17.975ZM114.912 23.3C115.145 23.3 115.445 23.1917 115.812 22.975C116.195 22.7583 116.604 22.4833 117.037 22.15C117.47 21.8167 117.895 21.4667 118.312 21.1C118.745 20.7333 119.129 20.3917 119.462 20.075C119.795 19.7583 120.045 19.5167 120.212 19.35L120.962 17.225C120.845 16.7917 120.67 16.5083 120.437 16.375C120.204 16.2417 119.979 16.175 119.762 16.175C119.429 16.175 119.037 16.3417 118.587 16.675C118.137 17.0083 117.679 17.4333 117.212 17.95C116.745 18.4667 116.304 19.025 115.887 19.625C115.487 20.2083 115.162 20.775 114.912 21.325C114.662 21.8583 114.537 22.3 114.537 22.65C114.537 22.8167 114.562 22.9667 114.612 23.1C114.679 23.2333 114.779 23.3 114.912 23.3ZM126.581 24.375C126.064 24.375 125.623 24.2167 125.256 23.9C124.906 23.5833 124.731 23.0333 124.731 22.25C124.731 21.7167 124.864 21.0917 125.131 20.375C125.414 19.6583 125.789 18.9667 126.256 18.3C126.723 17.6167 127.239 17.0583 127.806 16.625C128.373 16.175 128.948 15.95 129.531 15.95C129.914 15.95 130.198 16.0917 130.381 16.375C130.581 16.6417 130.681 16.9667 130.681 17.35C130.681 17.9167 130.498 18.4667 130.131 19C129.764 19.5333 129.298 19.9667 128.731 20.3C128.181 20.6333 127.631 20.8 127.081 20.8C126.631 20.8 126.289 20.6583 126.056 20.375C125.923 20.7083 125.814 21.0333 125.731 21.35C125.648 21.6667 125.606 21.9667 125.606 22.25C125.606 22.7333 125.706 23.075 125.906 23.275C126.123 23.4583 126.389 23.55 126.706 23.55C127.089 23.55 127.514 23.45 127.981 23.25C128.464 23.05 128.914 22.8167 129.331 22.55C129.748 22.2667 130.056 22.0333 130.256 21.85C130.589 21.5667 130.906 21.2583 131.206 20.925C131.523 20.575 131.798 20.25 132.031 19.95C132.114 19.85 132.206 19.8 132.306 19.8C132.406 19.8 132.489 19.85 132.556 19.95C132.639 20.0333 132.681 20.1417 132.681 20.275C132.681 20.3917 132.639 20.5083 132.556 20.625C132.289 20.9583 131.956 21.3417 131.556 21.775C131.173 22.1917 130.739 22.5833 130.256 22.95C129.989 23.1667 129.648 23.3833 129.231 23.6C128.814 23.8167 128.373 24 127.906 24.15C127.456 24.3 127.014 24.375 126.581 24.375ZM127.031 20C127.364 20 127.723 19.8917 128.106 19.675C128.506 19.4583 128.856 19.175 129.156 18.825C129.473 18.4583 129.681 18.0667 129.781 17.65C129.798 17.6167 129.806 17.575 129.806 17.525C129.806 17.475 129.806 17.4333 129.806 17.4C129.806 17.1 129.698 16.95 129.481 16.95C129.131 16.95 128.764 17.0833 128.381 17.35C127.998 17.6 127.631 17.9417 127.281 18.375C126.948 18.7917 126.648 19.25 126.381 19.75C126.448 19.8 126.514 19.85 126.581 19.9C126.648 19.9333 126.714 19.9583 126.781 19.975C126.814 19.9917 126.856 20 126.906 20C126.956 20 126.998 20 127.031 20ZM131.644 24.2C131.527 24.2 131.419 24.1583 131.319 24.075C131.219 24.0083 131.177 23.9 131.194 23.75C131.261 22.9333 131.477 21.9833 131.844 20.9C132.227 19.8 132.686 18.6833 133.219 17.55C133.052 17.5333 132.877 17.5083 132.694 17.475C132.477 17.425 132.369 17.2833 132.369 17.05C132.369 16.9333 132.402 16.8333 132.469 16.75C132.552 16.65 132.652 16.6 132.769 16.6C132.886 16.6 132.994 16.6167 133.094 16.65C133.194 16.6667 133.302 16.675 133.419 16.675C133.502 16.675 133.577 16.675 133.644 16.675C134.211 15.5583 134.802 14.5 135.419 13.5C136.036 12.4833 136.602 11.6417 137.119 10.975C137.436 10.575 137.769 10.1917 138.119 9.825C138.486 9.44167 138.852 9.13333 139.219 8.9C139.602 8.65 139.977 8.525 140.344 8.525C140.827 8.525 141.169 8.66667 141.369 8.95C141.586 9.23333 141.694 9.58333 141.694 10C141.694 10.25 141.661 10.5083 141.594 10.775C141.527 11.0417 141.436 11.3 141.319 11.55C141.086 12.0333 140.727 12.5833 140.244 13.2C139.761 13.8167 139.194 14.425 138.544 15.025C137.911 15.625 137.219 16.15 136.469 16.6C135.736 17.05 134.994 17.3417 134.244 17.475C133.661 18.675 133.177 19.8083 132.794 20.875C132.977 20.625 133.194 20.35 133.444 20.05C133.694 19.7333 133.977 19.4 134.294 19.05C135.127 18.0833 135.994 17.3417 136.894 16.825C137.794 16.3083 138.594 16.05 139.294 16.05C139.694 16.05 139.994 16.15 140.194 16.35C140.394 16.5333 140.494 16.7667 140.494 17.05C140.494 17.5167 140.319 17.9583 139.969 18.375C139.619 18.7917 139.152 19.15 138.569 19.45C137.986 19.75 137.327 19.9667 136.594 20.1C136.477 20.2667 136.369 20.5167 136.269 20.85C136.186 21.1667 136.119 21.4333 136.069 21.65C136.019 21.85 135.994 22.0333 135.994 22.2C135.994 22.55 136.086 22.8 136.269 22.95C136.452 23.0833 136.677 23.15 136.944 23.15C137.411 23.15 137.927 23.0083 138.494 22.725C139.077 22.4417 139.536 22.15 139.869 21.85C140.202 21.5667 140.511 21.2667 140.794 20.95C141.094 20.6333 141.361 20.3417 141.594 20.075C141.677 19.9917 141.761 19.95 141.844 19.95C142.077 19.95 142.194 20.1083 142.194 20.425C142.194 20.575 142.152 20.7 142.069 20.8C141.819 21.15 141.469 21.5417 141.019 21.975C140.586 22.3917 140.202 22.725 139.869 22.975C139.502 23.2417 139.027 23.4833 138.444 23.7C137.877 23.9167 137.327 24.025 136.794 24.025C136.294 24.025 135.869 23.9 135.519 23.65C135.169 23.3833 134.994 22.9333 134.994 22.3C134.994 22.2167 134.994 22.1417 134.994 22.075C134.994 21.9917 135.002 21.9167 135.019 21.85C135.086 21.3833 135.169 20.9917 135.269 20.675C135.386 20.3583 135.577 19.9583 135.844 19.475C136.127 19.4417 136.461 19.3583 136.844 19.225C137.244 19.0917 137.611 18.95 137.944 18.8C138.327 18.6167 138.677 18.375 138.994 18.075C139.327 17.7583 139.494 17.4667 139.494 17.2C139.494 17 139.336 16.9 139.019 16.9C138.802 16.9 138.502 16.9833 138.119 17.15C137.752 17.3 137.386 17.4833 137.019 17.7C136.669 17.9167 136.402 18.1 136.219 18.25C135.702 18.6833 135.161 19.225 134.594 19.875C134.044 20.5083 133.536 21.175 133.069 21.875C132.619 22.575 132.286 23.2167 132.069 23.8C132.069 23.9333 132.019 24.0333 131.919 24.1C131.836 24.1667 131.744 24.2 131.644 24.2ZM140.344 9.4C140.027 9.4 139.661 9.575 139.244 9.925C138.844 10.275 138.427 10.7333 137.994 11.3C137.561 11.85 137.136 12.45 136.719 13.1C136.302 13.7333 135.927 14.3417 135.594 14.925C135.261 15.5083 134.986 15.9917 134.769 16.375C135.436 16.125 136.136 15.75 136.869 15.25C137.602 14.75 138.294 14.1583 138.944 13.475C139.594 12.775 140.119 12.0083 140.519 11.175C140.736 10.6917 140.844 10.3167 140.844 10.05C140.844 9.8 140.786 9.63333 140.669 9.55C140.552 9.45 140.444 9.4 140.344 9.4ZM141.513 24.2C141.397 24.2 141.288 24.1583 141.188 24.075C141.088 24.0083 141.047 23.9 141.063 23.75C141.13 22.9167 141.363 21.9417 141.763 20.825C142.18 19.7083 142.688 18.575 143.288 17.425C143.088 17.4083 142.888 17.3833 142.688 17.35C142.572 17.3167 142.48 17.2583 142.413 17.175C142.347 17.0917 142.313 17.0083 142.313 16.925C142.313 16.8417 142.338 16.7667 142.388 16.7C142.455 16.6167 142.547 16.575 142.663 16.575C142.763 16.575 142.872 16.5917 142.988 16.625C143.122 16.6417 143.263 16.65 143.413 16.65C143.513 16.65 143.605 16.65 143.688 16.65C144.272 15.5333 144.888 14.4833 145.538 13.5C146.188 12.5 146.788 11.6667 147.338 11C147.672 10.6 148.022 10.2167 148.388 9.85C148.755 9.48333 149.13 9.18333 149.513 8.95C149.913 8.7 150.297 8.575 150.663 8.575C151.147 8.575 151.48 8.70833 151.663 8.975C151.863 9.225 151.963 9.54167 151.963 9.925C151.963 10.475 151.813 11.0333 151.513 11.6C151.263 12.0667 150.888 12.6083 150.388 13.225C149.888 13.825 149.305 14.425 148.638 15.025C147.988 15.6083 147.28 16.1167 146.513 16.55C145.763 16.9833 144.997 17.2583 144.213 17.375C143.863 18.0417 143.547 18.7 143.263 19.35C142.997 20 142.763 20.6167 142.563 21.2C142.697 21.0333 142.83 20.8667 142.963 20.7C143.397 20.1667 143.83 19.6667 144.263 19.2C144.697 18.7167 145.247 18.2333 145.913 17.75C146.58 17.2667 147.172 16.8833 147.688 16.6C148.222 16.3 148.572 16.1583 148.738 16.175C149.088 16.225 149.263 16.4167 149.263 16.75C149.263 16.9667 149.197 17.2167 149.063 17.5C148.947 17.7667 148.822 18.0083 148.688 18.225C148.555 18.4417 148.463 18.5917 148.413 18.675C148.23 18.9583 147.98 19.3833 147.663 19.95C147.347 20.5167 147.08 21.0667 146.863 21.6C146.797 21.7833 146.73 21.975 146.663 22.175C146.613 22.3583 146.588 22.5167 146.588 22.65C146.588 22.8667 146.68 22.975 146.863 22.975C147.03 22.975 147.272 22.8917 147.588 22.725C147.988 22.5083 148.355 22.2333 148.688 21.9C149.038 21.55 149.338 21.25 149.588 21C149.605 20.9833 149.68 20.9 149.813 20.75C149.963 20.6 150.105 20.45 150.238 20.3C150.388 20.15 150.463 20.075 150.463 20.075C150.53 19.9917 150.613 19.95 150.713 19.95C150.797 19.95 150.872 20 150.938 20.1C151.022 20.1833 151.063 20.2917 151.063 20.425C151.063 20.575 151.022 20.7 150.938 20.8C150.688 21.15 150.347 21.5333 149.913 21.95C149.48 22.3667 149.097 22.7083 148.763 22.975C148.413 23.2417 148.055 23.45 147.688 23.6C147.322 23.75 146.988 23.825 146.688 23.825C146.372 23.825 146.105 23.7333 145.888 23.55C145.688 23.3667 145.588 23.075 145.588 22.675C145.588 22.3083 145.672 21.9 145.838 21.45C146.072 20.7667 146.413 20.0917 146.863 19.425C147.33 18.7583 147.713 18.1167 148.013 17.5C146.797 18.2167 145.672 19.0917 144.638 20.125C143.605 21.1583 142.722 22.25 141.988 23.4C141.972 23.5333 141.955 23.6667 141.938 23.8C141.938 23.9333 141.888 24.0333 141.788 24.1C141.705 24.1667 141.613 24.2 141.513 24.2ZM150.638 9.45C150.322 9.45 149.947 9.625 149.513 9.975C149.08 10.325 148.63 10.7833 148.163 11.35C147.713 11.9 147.263 12.5 146.813 13.15C146.363 13.7833 145.955 14.4 145.588 15C145.222 15.5833 144.93 16.0667 144.713 16.45C145.38 16.2167 146.097 15.85 146.863 15.35C147.63 14.85 148.355 14.25 149.038 13.55C149.722 12.85 150.288 12.075 150.738 11.225C150.872 10.9583 150.963 10.7333 151.013 10.55C151.08 10.35 151.113 10.1833 151.113 10.05C151.113 9.81667 151.055 9.65833 150.938 9.575C150.838 9.49167 150.738 9.45 150.638 9.45ZM151.574 24.425C151.008 24.425 150.608 24.2667 150.374 23.95C150.141 23.6167 150.024 23.2083 150.024 22.725C150.024 22.325 150.083 21.8917 150.199 21.425C150.333 20.9417 150.499 20.4667 150.699 20C150.716 19.35 150.891 18.7083 151.224 18.075C151.574 17.4417 152.041 16.9167 152.624 16.5C153.224 16.0833 153.924 15.875 154.724 15.875C155.508 15.875 156.049 16.1 156.349 16.55C156.666 17 156.824 17.5333 156.824 18.15C156.824 18.5167 156.783 18.8917 156.699 19.275C156.616 19.6417 156.508 19.9917 156.374 20.325C156.241 20.6583 156.074 21 155.874 21.35C155.674 21.6833 155.449 22.0167 155.199 22.35C155.699 22.2667 156.133 22.1083 156.499 21.875C156.883 21.625 157.266 21.2833 157.649 20.85C158.033 20.4167 158.483 19.8667 158.999 19.2C159.099 19.0833 159.208 19.025 159.324 19.025C159.458 19.025 159.566 19.0667 159.649 19.15C159.749 19.2333 159.799 19.3417 159.799 19.475C159.799 19.575 159.766 19.6667 159.699 19.75C159.216 20.4167 158.724 21.0167 158.224 21.55C157.741 22.0833 157.191 22.5 156.574 22.8C155.958 23.1 155.216 23.25 154.349 23.25C153.949 23.6 153.516 23.8833 153.049 24.1C152.583 24.3167 152.091 24.425 151.574 24.425ZM153.024 17.95C152.824 18.1 152.583 18.4 152.299 18.85C152.016 19.3 151.758 19.7917 151.524 20.325C151.558 20.8417 151.766 21.3083 152.149 21.725C152.549 22.125 153.158 22.35 153.974 22.4C154.574 21.8167 155.058 21.1333 155.424 20.35C155.791 19.55 155.974 18.8333 155.974 18.2C155.974 17.7667 155.874 17.4167 155.674 17.15C155.474 16.8833 155.158 16.75 154.724 16.75C154.424 16.75 154.133 16.8 153.849 16.9C153.566 17 153.308 17.1333 153.074 17.3C153.158 17.3833 153.199 17.4833 153.199 17.6C153.199 17.7333 153.141 17.85 153.024 17.95ZM150.899 22.675C150.899 22.9417 150.949 23.1583 151.049 23.325C151.166 23.475 151.341 23.55 151.574 23.55C152.058 23.55 152.549 23.4 153.049 23.1C152.566 22.9833 152.158 22.8 151.824 22.55C151.491 22.2833 151.233 21.9833 151.049 21.65C150.949 22.05 150.899 22.3917 150.899 22.675Z" fill="#000080"/>
<g filter="url(#filter1_d_17007_2762)">
<mask id="path-4-inside-1_17007_2762" fill="white">
<path fill-rule="evenodd" clip-rule="evenodd" d="M35.4732 0C39.7256 0.558405 43.4271 2.16255 46.6465 4.63385C49.8659 7.10515 52.1721 10.3196 53.2733 13.8709C54.3746 17.4221 54.2214 21.1505 52.8333 24.5847C51.4452 28.0188 48.8844 31.0045 45.4748 33.1641C42.0652 35.3237 37.9599 36.5602 33.6781 36.7173C32.4272 36.7632 31.1776 36.7164 29.9429 36.5797V29.2797C29.9429 29.2797 29.9429 29.2797 29.9429 29.2797V15.6959H37.1288V28.8089C38.2663 28.4485 39.3424 27.9525 40.3239 27.3309C42.3998 26.0161 43.9588 24.1983 44.8039 22.1076C45.6208 20.0866 45.6418 18.4068 45.6682 16.3022L45.6709 16.0825C45.715 12.6792 43.9388 8.69298 42.5149 6.85746C41.4229 5.33737 40.928 4.78458 40.3904 4.29343L35.4732 0ZM39.9176 3.87801C40.0855 4.02282 40.2367 4.15324 40.3845 4.28807L39.671 3.66457C39.7577 3.74005 39.8394 3.81053 39.9175 3.87789L39.9176 3.87801Z"/>
</mask>
<path fill-rule="evenodd" clip-rule="evenodd" d="M35.4732 0C39.7256 0.558405 43.4271 2.16255 46.6465 4.63385C49.8659 7.10515 52.1721 10.3196 53.2733 13.8709C54.3746 17.4221 54.2214 21.1505 52.8333 24.5847C51.4452 28.0188 48.8844 31.0045 45.4748 33.1641C42.0652 35.3237 37.9599 36.5602 33.6781 36.7173C32.4272 36.7632 31.1776 36.7164 29.9429 36.5797V29.2797C29.9429 29.2797 29.9429 29.2797 29.9429 29.2797V15.6959H37.1288V28.8089C38.2663 28.4485 39.3424 27.9525 40.3239 27.3309C42.3998 26.0161 43.9588 24.1983 44.8039 22.1076C45.6208 20.0866 45.6418 18.4068 45.6682 16.3022L45.6709 16.0825C45.715 12.6792 43.9388 8.69298 42.5149 6.85746C41.4229 5.33737 40.928 4.78458 40.3904 4.29343L35.4732 0ZM39.9176 3.87801C40.0855 4.02282 40.2367 4.15324 40.3845 4.28807L39.671 3.66457C39.7577 3.74005 39.8394 3.81053 39.9175 3.87789L39.9176 3.87801Z" fill="url(#paint0_linear_17007_2762)" fill-opacity="0.2" shape-rendering="crispEdges"/>
<path d="M46.6465 4.63385L47.2554 3.84061L46.6465 4.63385ZM35.4732 0L35.6034 -0.991488L32.324 -1.42211L34.8155 0.75327L35.4732 0ZM53.2733 13.8709L52.3182 14.1671L53.2733 13.8709ZM52.8333 24.5847L51.9062 24.2099H51.9062L52.8333 24.5847ZM45.4748 33.1641L44.9397 32.3193L45.4748 33.1641ZM33.6781 36.7173L33.7147 37.7166H33.7147L33.6781 36.7173ZM29.9429 36.5797H28.9429V37.4752L29.8329 37.5737L29.9429 36.5797ZM29.9429 29.2797V28.2797H28.9429V29.2797H29.9429ZM29.9429 29.2797V30.2797H30.9429V29.2797H29.9429ZM29.9429 15.6959V14.6959H28.9429V15.6959H29.9429ZM37.1288 15.6959H38.1288V14.6959H37.1288V15.6959ZM37.1288 28.8089H36.1288V30.1746L37.4308 29.7622L37.1288 28.8089ZM40.3239 27.3309L39.7889 26.4861L39.7889 26.4861L40.3239 27.3309ZM44.8039 22.1076L43.8768 21.7328L44.8039 22.1076ZM45.6682 16.3022L44.6682 16.2895L44.6682 16.2896L45.6682 16.3022ZM45.6709 16.0825L44.671 16.0695L44.671 16.0698L45.6709 16.0825ZM42.5149 6.85746L41.7027 7.44088L41.7135 7.45584L41.7248 7.47039L42.5149 6.85746ZM40.3904 4.29343L41.0649 3.55513L41.0566 3.54755L41.0481 3.54016L40.3904 4.29343ZM40.3845 4.28807L39.7265 5.04108L41.0584 3.54926L40.3845 4.28807ZM39.9176 3.87801L39.2634 4.63433L39.2645 4.63525L39.9176 3.87801ZM39.671 3.66457L40.3278 2.91052L39.013 4.41758L39.671 3.66457ZM39.9175 3.87789L40.5717 3.12157L40.5706 3.12065L39.9175 3.87789ZM47.2554 3.84061C43.9015 1.2661 40.0361 -0.409411 35.6034 -0.991488L35.343 0.991488C39.4152 1.52622 42.9526 3.059 46.0376 5.42709L47.2554 3.84061ZM54.2285 13.5747C53.0603 9.80778 50.6231 6.4257 47.2554 3.84061L46.0376 5.42709C49.1088 7.7846 51.2838 10.8315 52.3182 14.1671L54.2285 13.5747ZM53.7605 24.9594C55.2353 21.3107 55.3977 17.3452 54.2285 13.5747L52.3182 14.1671C53.3515 17.499 53.2076 20.9904 51.9062 24.2099L53.7605 24.9594ZM46.0099 34.0089C49.5794 31.748 52.2869 28.6049 53.7605 24.9594L51.9062 24.2099C50.6035 27.4328 48.1894 30.261 44.9397 32.3193L46.0099 34.0089ZM33.7147 37.7166C38.1621 37.5535 42.4415 36.2691 46.0099 34.0089L44.9397 32.3193C41.689 34.3783 37.7577 35.567 33.6414 35.718L33.7147 37.7166ZM29.8329 37.5737C31.116 37.7156 32.4146 37.7643 33.7147 37.7166L33.6414 35.718C32.4397 35.7621 31.2392 35.7171 30.0529 35.5858L29.8329 37.5737ZM28.9429 29.2797V36.5797H30.9429V29.2797H28.9429ZM29.9429 28.2797C29.987 28.2797 30.026 28.2826 30.0583 28.2864C30.0905 28.2901 30.1177 28.2949 30.1383 28.299C30.1586 28.303 30.1749 28.3069 30.1845 28.3093C30.1895 28.3105 30.1935 28.3116 30.1959 28.3122C30.198 28.3128 30.1999 28.3133 30.1996 28.3132C30.1996 28.3132 30.1996 28.3132 30.1996 28.3132C30.1996 28.3132 30.1996 28.3132 30.1996 28.3132C30.1996 28.3132 30.1996 28.3132 30.1995 28.3132C30.1995 28.3132 30.1994 28.3132 30.1994 28.3131C30.1992 28.3131 30.199 28.313 30.1987 28.3129C30.1981 28.3128 30.1971 28.3125 30.1959 28.3122C30.1935 28.3116 30.1895 28.3105 30.1845 28.3093C30.1749 28.3069 30.1586 28.303 30.1383 28.299C30.1177 28.2949 30.0905 28.2901 30.0583 28.2864C30.0259 28.2826 29.987 28.2797 29.9429 28.2797V30.2797C29.8987 30.2797 29.8598 30.2768 29.8274 30.273C29.7952 30.2693 29.768 30.2645 29.7475 30.2604C29.7271 30.2563 29.7108 30.2524 29.7012 30.25C29.6963 30.2488 29.6923 30.2478 29.6899 30.2472C29.6877 30.2466 29.6858 30.2461 29.6862 30.2462C29.6862 30.2462 29.6862 30.2462 29.6862 30.2462C29.6862 30.2462 29.6862 30.2462 29.6862 30.2462C29.6862 30.2462 29.6862 30.2462 29.6862 30.2462C29.6863 30.2462 29.6863 30.2462 29.6864 30.2462C29.6865 30.2463 29.6868 30.2463 29.6871 30.2464C29.6877 30.2466 29.6887 30.2468 29.6899 30.2472C29.6923 30.2478 29.6963 30.2488 29.7012 30.25C29.7109 30.2524 29.7271 30.2564 29.7475 30.2604C29.768 30.2645 29.7952 30.2693 29.8275 30.273C29.8598 30.2768 29.8988 30.2797 29.9429 30.2797V28.2797ZM30.9429 29.2797V15.6959H28.9429V29.2797H30.9429ZM29.9429 16.6959H37.1288V14.6959H29.9429V16.6959ZM36.1288 15.6959V28.8089H38.1288V15.6959H36.1288ZM39.7889 26.4861C38.8832 27.0597 37.8858 27.5201 36.8268 27.8556L37.4308 29.7622C38.6467 29.377 39.8017 28.8453 40.859 28.1757L39.7889 26.4861ZM43.8768 21.7328C43.1171 23.6123 41.7047 25.2726 39.7889 26.4861L40.859 28.1757C43.0948 26.7596 44.8005 24.7844 45.7311 22.4823L43.8768 21.7328ZM44.6682 16.2896C44.6418 18.4028 44.615 19.9066 43.8768 21.7328L45.7311 22.4823C46.6267 20.2666 46.6419 18.4109 46.6681 16.3147L44.6682 16.2896ZM44.671 16.0698L44.6682 16.2895L46.6681 16.3148L46.6709 16.0951L44.671 16.0698ZM41.7248 7.47039C42.361 8.29052 43.1165 9.65131 43.7066 11.2318C44.2964 12.8117 44.6909 14.5315 44.671 16.0695L46.6709 16.0954C46.695 14.2302 46.2235 12.2553 45.5802 10.5323C44.9372 8.81001 44.0927 7.25991 43.305 6.24453L41.7248 7.47039ZM39.7159 5.03174C40.1786 5.45436 40.6265 5.94269 41.7027 7.44088L43.3271 6.27404C42.2194 4.73206 41.6775 4.1148 41.0649 3.55513L39.7159 5.03174ZM34.8155 0.75327L39.7327 5.0467L41.0481 3.54016L36.1309 -0.75327L34.8155 0.75327ZM41.0584 3.54926C40.8986 3.40343 40.7366 3.26383 40.5708 3.12077L39.2645 4.63525C39.4344 4.7818 39.5749 4.90305 39.7106 5.02687L41.0584 3.54926ZM39.013 4.41758L39.7265 5.04108L41.0425 3.53506L40.329 2.91156L39.013 4.41758ZM40.5706 3.12065C40.4923 3.05311 40.4124 2.98416 40.3278 2.91052L39.0142 4.41862C39.103 4.49594 39.1864 4.56794 39.2643 4.63513L40.5706 3.12065ZM40.5718 3.1217L40.5717 3.12158L39.2633 4.6342L39.2634 4.63432L40.5718 3.1217Z" fill="#000080" mask="url(#path-4-inside-1_17007_2762)"/>
</g>
<g filter="url(#filter2_d_17007_2762)">
<path d="M22.1318 19.0353C22.1318 17.1909 23.627 15.6958 25.4713 15.6958H29.9426V22.3748H25.4713C23.627 22.3748 22.1318 20.8796 22.1318 19.0353Z" fill="#000080"/>
</g>
<defs>
<filter id="filter0_d_17007_2762" x="0" y="0" width="40.5557" height="44.4004" filterUnits="userSpaceOnUse" color-interpolation-filters="sRGB">
<feFlood flood-opacity="0" result="BackgroundImageFix"/>
<feColorMatrix in="SourceAlpha" type="matrix" values="0 0 0 0 0 0 0 0 0 0 0 0 0 0 0 0 0 0 127 0" result="hardAlpha"/>
<feOffset dx="-5" dy="4"/>
<feGaussianBlur stdDeviation="2"/>
<feComposite in2="hardAlpha" operator="out"/>
<feColorMatrix type="matrix" values="0 0 0 0 0 0 0 0 0 0 0 0 0 0 0.501961 0 0 0 0.25 0"/>
<feBlend mode="normal" in2="BackgroundImageFix" result="effect1_dropShadow_17007_2762"/>
<feBlend mode="normal" in="SourceGraphic" in2="effect1_dropShadow_17007_2762" result="shape"/>
</filter>
<filter id="filter1_d_17007_2762" x="20.9429" y="0" width="33.0571" height="44.7344" filterUnits="userSpaceOnUse" color-interpolation-filters="sRGB">
<feFlood flood-opacity="0" result="BackgroundImageFix"/>
<feColorMatrix in="SourceAlpha" type="matrix" values="0 0 0 0 0 0 0 0 0 0 0 0 0 0 0 0 0 0 127 0" result="hardAlpha"/>
<feOffset dx="-5" dy="4"/>
<feGaussianBlur stdDeviation="2"/>
<feComposite in2="hardAlpha" operator="out"/>
<feColorMatrix type="matrix" values="0 0 0 0 0 0 0 0 0 0 0 0 0 0 0.501961 0 0 0 0.25 0"/>
<feBlend mode="normal" in2="BackgroundImageFix" result="effect1_dropShadow_17007_2762"/>
<feBlend mode="normal" in="SourceGraphic" in2="effect1_dropShadow_17007_2762" result="shape"/>
</filter>
<filter id="filter2_d_17007_2762" x="14.1318" y="15.6958" width="15.8105" height="14.6792" filterUnits="userSpaceOnUse" color-interpolation-filters="sRGB">
<feFlood flood-opacity="0" result="BackgroundImageFix"/>
<feColorMatrix in="SourceAlpha" type="matrix" values="0 0 0 0 0 0 0 0 0 0 0 0 0 0 0 0 0 0 127 0" result="hardAlpha"/>
<feOffset dx="-4" dy="4"/>
<feGaussianBlur stdDeviation="2"/>
<feComposite in2="hardAlpha" operator="out"/>
<feColorMatrix type="matrix" values="0 0 0 0 0 0 0 0 0 0 0 0 0 0 0.501961 0 0 0 0.25 0"/>
<feBlend mode="normal" in2="BackgroundImageFix" result="effect1_dropShadow_17007_2762"/>
<feBlend mode="normal" in="SourceGraphic" in2="effect1_dropShadow_17007_2762" result="shape"/>
</filter>
<linearGradient id="paint0_linear_17007_2762" x1="59.4363" y1="29.605" x2="34.3954" y2="18.444" gradientUnits="userSpaceOnUse">
<stop offset="0.6329" stop-color="#918FE9"/>
<stop offset="0.646682" stop-color="#918FE9"/>
<stop offset="0.795561" stop-color="#000080"/>
<stop offset="1" stop-color="#000080"/>
</linearGradient>
</defs>
</svg>
