<svg width="216" height="43" viewBox="0 0 216 43" fill="none" xmlns="http://www.w3.org/2000/svg">
<g clip-path="url(#clip0_18930_3)">
<rect width="59" height="43" rx="21.5" fill="#000080"/>
<g filter="url(#filter0_d_18930_3)">
<path d="M38.6788 10.0911C36.5727 7.1942 33.8074 5.21762 30.505 4.02292C27.2026 2.82821 23.633 2.67636 20.2474 3.58657C16.8619 4.49678 13.8125 6.42816 11.4849 9.13648C9.1573 11.8448 7.65603 15.2084 7.17094 18.802C6.68584 22.3956 7.2387 26.0577 8.75961 29.3252C10.2805 32.5928 12.7012 35.3191 15.7154 37.1593C18.7297 38.9995 21.9951 39.5674 25.4868 39.3599V32.3548C23.361 32.4811 21.0585 32.094 19.2234 30.9737C17.3882 29.8534 15.9145 28.1936 14.9885 26.2042C14.0626 24.2149 13.726 21.9853 14.0213 19.7975C14.3167 17.6096 14.9885 15.3424 16.334 13.3409C17.6794 11.3394 19.3883 10.5918 21.3173 10.0911C23.2464 9.59043 21.3173 10.0911 30.1486 10.0911C32.5701 10.0911 32.8815 10.0911 34.1675 10.0911H36.418H38.6788Z" fill="white"/>
<path d="M30.3349 4.4931C33.2379 5.54333 35.7053 7.20919 37.6609 9.59112H36.418H34.1675H34.16H34.1525H34.145H34.1375H34.1301H34.1227H34.1153H34.1079H34.1006H34.0932H34.0859H34.0786H34.0714H34.0641H34.0569H34.0497H34.0425H34.0353H34.0282H34.0211H34.014H34.0069H33.9998H33.9927H33.9857H33.9787H33.9717H33.9647H33.9578H33.9508H33.9439H33.937H33.9301H33.9233H33.9164H33.9096H33.9028H33.896H33.8892H33.8825H33.8757H33.869H33.8623H33.8556H33.8489H33.8422H33.8356H33.8289H33.8223H33.8157H33.8091H33.8026H33.796H33.7895H33.783H33.7765H33.77H33.7635H33.757H33.7506H33.7441H33.7377H33.7313H33.7249H33.7185H33.7121H33.7058H33.6994H33.6931H33.6868H33.6805H33.6742H33.6679H33.6616H33.6554H33.6491H33.6429H33.6367H33.6305H33.6243H33.6181H33.6119H33.6058H33.5996H33.5935H33.5873H33.5812H33.5751H33.569H33.5629H33.5568H33.5508H33.5447H33.5386H33.5326H33.5266H33.5205H33.5145H33.5085H33.5025H33.4965H33.4905H33.4846H33.4786H33.4726H33.4667H33.4608H33.4548H33.4489H33.443H33.4371H33.4312H33.4253H33.4194H33.4135H33.4076H33.4017H33.3959H33.39H33.3842H33.3783H33.3725H33.3666H33.3608H33.355H33.3491H33.3433H33.3375H33.3317H33.3259H33.3201H33.3143H33.3085H33.3027H33.297H33.2912H33.2854H33.2796H33.2739H33.2681H33.2623H33.2566H33.2508H33.2451H33.2393H33.2336H33.2278H33.2221H33.2163H33.2106H33.2049H33.1991H33.1934H33.1876H33.1819H33.1762H33.1704H33.1647H33.159H33.1532H33.1475H33.1418H33.1361H33.1303H33.1246H33.1189H33.1131H33.1074H33.1017H33.0959H33.0902H33.0845H33.0787H33.073H33.0672H33.0615H33.0557H33.05H33.0442H33.0385H33.0327H33.027H33.0212H33.0155H33.0097H33.0039H32.9981H32.9924H32.9866H32.9808H32.975H32.9692H32.9634H32.9576H32.9518H32.946H32.9402H32.9344H32.9286H32.9227H32.9169H32.9111H32.9052H32.8994H32.8935H32.8876H32.8818H32.8759H32.87H32.8641H32.8582H32.8523H32.8464H32.8405H32.8346H32.8287H32.8227H32.8168H32.8108H32.8049H32.7989H32.7929H32.7869H32.7809H32.7749H32.7689H32.7629H32.7569H32.7508H32.7448H32.7387H32.7327H32.7266H32.7205H32.7144H32.7083H32.7022H32.6961H32.6899H32.6838H32.6776H32.6715H32.6653H32.6591H32.6529H32.6467H32.6404H32.6342H32.628H32.6217H32.6154H32.6091H32.6028H32.5965H32.5902H32.5839H32.5775H32.5712H32.5648H32.5584H32.552H32.5456H32.5391H32.5327H32.5262H32.5198H32.5133H32.5068H32.5003H32.4937H32.4872H32.4806H32.474H32.4675H32.4608H32.4542H32.4476H32.4409H32.4343H32.4276H32.4209H32.4142H32.4074H32.4007H32.3939H32.3871H32.3803H32.3735H32.3666H32.3598H32.3529H32.346H32.3391H32.3322H32.3252H32.3183H32.3113H32.3043H32.2973H32.2902H32.2832H32.2761H32.269H32.2619H32.2548H32.2476H32.2404H32.2332H32.226H32.2188H32.2115H32.2042H32.1969H32.1896H32.1823H32.1749H32.1675H32.1601H32.1527H32.1453H32.1378H32.1303H32.1228H32.1153H32.1077H32.1001H32.0925H32.0849H32.0773H32.0696H32.0619H32.0542H32.0464H32.0387H32.0309H32.0231H32.0152H32.0074H31.9995H31.9916H31.9837H31.9757H31.9677H31.9597H31.9517H31.9436H31.9355H31.9274H31.9193H31.9111H31.9029H31.8947H31.8865H31.8782H31.8699H31.8616H31.8533H31.8449H31.8365H31.8281H31.8196H31.8111H31.8026H31.7941H31.7855H31.7769H31.7683H31.7597H31.751H31.7423H31.7335H31.7248H31.716H31.7072H31.6983H31.6894H31.6805H31.6716H31.6626H31.6536H31.6446H31.6355H31.6264H31.6173H31.6082H31.599H31.5898H31.5805H31.5712H31.5619H31.5526H31.5432H31.5338H31.5244H31.5149H31.5054H31.4959H31.4863H31.4767H31.4671H31.4574H31.4478H31.438H31.4283H31.4185H31.4086H31.3988H31.3889H31.379H31.369H31.359H31.349H31.3389H31.3288H31.3187H31.3085H31.2983H31.2881H31.2778H31.2675H31.2571H31.2467H31.2363H31.2259H31.2154H31.2049H31.1943H31.1837H31.1731H31.1624H31.1517H31.1409H31.1301H31.1193H31.1085H31.0976H31.0866H31.0757H31.0646H31.0536H31.0425H31.0314H31.0202H31.009H30.9978H30.9865H30.9752H30.9638H30.9524H30.941H30.9295H30.918H30.9064H30.8948H30.8832H30.8715H30.8598H30.848H30.8362H30.8244H30.8125H30.8006H30.7886H30.7766H30.7645H30.7524H30.7403H30.7281H30.7159H30.7037H30.6913H30.679H30.6666H30.6542H30.6417H30.6292H30.6166H30.604H30.5914H30.5787H30.566H30.5532H30.5403H30.5275H30.5146H30.5016H30.4886H30.4756H30.4625H30.4493H30.4362H30.4229H30.4097H30.3963H30.383H30.3696H30.3561H30.3426H30.329H30.3155H30.3018H30.2881H30.2744H30.2606H30.2468H30.2329H30.219H30.205H30.191H30.1769H30.1628H30.1486C25.7511 9.59112 24.0362 9.46672 23.1844 9.40494L23.1808 9.40467L23.1416 9.40182C22.7473 9.37317 22.4905 9.35451 22.218 9.38251C21.9514 9.40991 21.6759 9.48143 21.2349 9.59594L21.1917 9.60716C19.2037 10.1231 17.3604 10.9177 15.919 13.062C14.519 15.1446 13.8281 17.4911 13.5258 19.7306C13.2178 22.0125 13.5687 24.3386 14.5352 26.4152C15.5019 28.492 17.0418 30.2277 18.9628 31.4005C20.7526 32.4931 22.9373 32.9161 24.9868 32.875V38.884C21.751 39.0099 18.7495 38.4257 15.976 36.7325C13.0476 34.9448 10.6931 32.2944 9.21291 29.1143C7.73261 25.9339 7.19406 22.3683 7.66644 18.8689C8.13882 15.3695 9.6005 12.0962 11.8641 9.46238C14.1275 6.82872 17.0906 4.95304 20.3772 4.06942C23.6637 3.18586 27.1287 3.33317 30.3349 4.4931Z" stroke="white"/>
</g>
<g filter="url(#filter1_d_18930_3)">
<mask id="path-4-inside-1_18930_3" fill="white">
<path fill-rule="evenodd" clip-rule="evenodd" d="M33.5768 3.00028C37.8458 3.55869 41.5618 5.16283 44.7938 7.63413C48.0258 10.1054 50.3409 13.3199 51.4465 16.8711C52.552 20.4224 52.3983 24.1508 51.0047 27.585C49.6112 31.0191 47.0404 34.0048 43.6175 36.1644C40.1946 38.3239 36.0732 39.5605 31.7746 39.7176C30.5189 39.7635 29.2646 39.7166 28.0251 39.58V33.0556H28.0248V18.6958H35.2387V31.8092C36.3807 31.4489 37.4611 30.9528 38.4465 30.3311C40.5304 29.0163 42.0956 27.1986 42.944 25.1078C43.7641 23.0869 43.7852 21.4071 43.8116 19.3024L43.8144 19.0827C43.8586 15.6795 42.0754 11.6933 40.646 9.85774C39.5498 8.33764 39.0529 7.78485 38.5132 7.2937L33.5768 3.00028ZM38.0386 6.87834C38.2071 7.02312 38.3589 7.15353 38.5073 7.28834L37.7911 6.6649C37.8781 6.74041 37.9601 6.81091 38.0386 6.87829L38.0386 6.87834Z"/>
</mask>
<path fill-rule="evenodd" clip-rule="evenodd" d="M33.5768 3.00028C37.8458 3.55869 41.5618 5.16283 44.7938 7.63413C48.0258 10.1054 50.3409 13.3199 51.4465 16.8711C52.552 20.4224 52.3983 24.1508 51.0047 27.585C49.6112 31.0191 47.0404 34.0048 43.6175 36.1644C40.1946 38.3239 36.0732 39.5605 31.7746 39.7176C30.5189 39.7635 29.2646 39.7166 28.0251 39.58V33.0556H28.0248V18.6958H35.2387V31.8092C36.3807 31.4489 37.4611 30.9528 38.4465 30.3311C40.5304 29.0163 42.0956 27.1986 42.944 25.1078C43.7641 23.0869 43.7852 21.4071 43.8116 19.3024L43.8144 19.0827C43.8586 15.6795 42.0754 11.6933 40.646 9.85774C39.5498 8.33764 39.0529 7.78485 38.5132 7.2937L33.5768 3.00028ZM38.0386 6.87834C38.2071 7.02312 38.3589 7.15353 38.5073 7.28834L37.7911 6.6649C37.8781 6.74041 37.9601 6.81091 38.0386 6.87829L38.0386 6.87834Z" fill="white"/>
<path d="M44.7938 7.63413L44.1863 8.42851L44.1863 8.42851L44.7938 7.63413ZM33.5768 3.00028L33.7065 2.00873L30.4184 1.57864L32.9205 3.75482L33.5768 3.00028ZM51.4465 16.8711L50.4917 17.1684L50.4917 17.1684L51.4465 16.8711ZM51.0047 27.585L50.0781 27.209L50.0781 27.209L51.0047 27.585ZM43.6175 36.1644L43.0839 35.3186L43.0839 35.3186L43.6175 36.1644ZM31.7746 39.7176L31.7381 38.7182L31.7381 38.7182L31.7746 39.7176ZM28.0251 39.58H27.0251V40.4759L27.9155 40.574L28.0251 39.58ZM28.0251 33.0556H29.0251V32.0556H28.0251V33.0556ZM28.0248 33.0556H27.0248V34.0556H28.0248V33.0556ZM28.0248 18.6958V17.6958H27.0248V18.6958H28.0248ZM35.2387 18.6958H36.2387V17.6958H35.2387V18.6958ZM35.2387 31.8092H34.2387V33.1733L35.5397 32.7628L35.2387 31.8092ZM38.4465 30.3311L37.9129 29.4854L37.9129 29.4854L38.4465 30.3311ZM42.944 25.1078L43.8706 25.4838L43.8706 25.4838L42.944 25.1078ZM43.8116 19.3024L42.8117 19.2897L42.8117 19.2899L43.8116 19.3024ZM43.8144 19.0827L42.8145 19.0697L42.8145 19.07L43.8144 19.0827ZM40.646 9.85774L39.8349 10.4427L39.8457 10.4576L39.857 10.4722L40.646 9.85774ZM38.5132 7.2937L39.1862 6.55409L39.1779 6.54653L39.1695 6.53917L38.5132 7.2937ZM38.5073 7.28834L37.8507 8.04261L39.1798 6.54822L38.5073 7.28834ZM38.0386 6.87834L38.6903 6.11984L38.6886 6.11838L38.0386 6.87834ZM37.7911 6.6649L38.4464 5.90958L37.1345 7.41918L37.7911 6.6649ZM38.0386 6.87829L37.3869 7.6368L37.3886 7.63826L38.0386 6.87829ZM45.4012 6.83974C42.0347 4.26561 38.1551 2.59062 33.7065 2.00873L33.4471 3.99183C37.5366 4.52675 41.0888 6.06005 44.1863 8.42851L45.4012 6.83974ZM52.4013 16.5739C51.2284 12.8064 48.7814 9.4244 45.4012 6.83974L44.1863 8.42851C47.2701 10.7865 49.4535 13.8335 50.4917 17.1684L52.4013 16.5739ZM51.9314 27.961C53.4122 24.3116 53.5753 20.3452 52.4013 16.5739L50.4917 17.1684C51.5287 20.4995 51.3843 23.99 50.0781 27.209L51.9314 27.961ZM44.1511 37.0101C47.7338 34.7497 50.4519 31.6069 51.9314 27.961L50.0781 27.209C48.7705 30.4313 46.347 33.2599 43.0839 35.3186L44.1511 37.0101ZM31.8112 40.7169C36.2746 40.5538 40.5695 39.2698 44.1511 37.0101L43.0839 35.3186C39.8196 37.3781 35.8718 38.5672 31.7381 38.7182L31.8112 40.7169ZM27.9155 40.574C29.2032 40.7159 30.5064 40.7646 31.8112 40.7169L31.7381 38.7182C30.5314 38.7623 29.3259 38.7173 28.1346 38.5861L27.9155 40.574ZM27.0251 33.0556V39.58H29.0251V33.0556H27.0251ZM28.0251 32.0556H28.0248V34.0556H28.0251V32.0556ZM29.0248 33.0556V18.6958H27.0248V33.0556H29.0248ZM28.0248 19.6958H35.2387V17.6958H28.0248V19.6958ZM34.2387 18.6958V31.8092H36.2387V18.6958H34.2387ZM37.9129 29.4854C37.0033 30.0593 36.0016 30.5199 34.9378 30.8555L35.5397 32.7628C36.7598 32.3778 37.9189 31.8464 38.9801 31.1769L37.9129 29.4854ZM42.0174 24.7318C41.2549 26.6108 39.837 28.2714 37.9129 29.4854L38.9801 31.1769C41.2238 29.7613 42.9362 27.7864 43.8706 25.4838L42.0174 24.7318ZM42.8117 19.2899C42.7851 21.403 42.7582 22.9062 42.0174 24.7318L43.8706 25.4838C44.7699 23.2676 44.7852 21.4113 44.8115 19.315L42.8117 19.2899ZM42.8145 19.07L42.8117 19.2897L44.8115 19.3151L44.8143 19.0954L42.8145 19.07ZM39.857 10.4722C40.4957 11.2923 41.2541 12.653 41.8464 14.2333C42.4385 15.813 42.8344 17.5324 42.8145 19.0697L44.8143 19.0957C44.8386 17.2298 44.365 15.2545 43.7192 13.5314C43.0736 11.8089 42.2257 10.2587 41.435 9.24332L39.857 10.4722ZM37.8402 8.03332C38.3048 8.45608 38.7545 8.94449 39.8349 10.4427L41.4571 9.27282C40.3451 7.7308 39.8011 7.11362 39.1862 6.55409L37.8402 8.03332ZM32.9205 3.75482L37.8569 8.04824L39.1695 6.53917L34.233 2.24574L32.9205 3.75482ZM39.1798 6.54822C39.0193 6.40244 38.8568 6.26288 38.6903 6.11984L37.387 7.63684C37.5575 7.78336 37.6985 7.90461 37.8348 8.02845L39.1798 6.54822ZM37.1345 7.41918L37.8507 8.04261L39.1638 6.53406L38.4476 5.91062L37.1345 7.41918ZM38.6902 6.11979C38.6116 6.05224 38.5313 5.98326 38.4464 5.90958L37.1357 7.42022C37.2248 7.49755 37.3087 7.56958 37.3869 7.63679L38.6902 6.11979ZM38.6886 6.11838L38.6885 6.11833L37.3886 7.63826L37.3887 7.6383L38.6886 6.11838Z" fill="white" mask="url(#path-4-inside-1_18930_3)"/>
</g>
<g filter="url(#filter2_d_18930_3)">
<path d="M20.1836 22.0353C20.1836 20.1909 21.6787 18.6958 23.5231 18.6958H28.0249V25.3748H23.5231C21.6787 25.3748 20.1836 23.8796 20.1836 22.0353V22.0353Z" fill="white"/>
<path d="M23.5231 19.1958H27.5249V24.8748H23.5231C21.9549 24.8748 20.6836 23.6035 20.6836 22.0353C20.6836 20.4671 21.9549 19.1958 23.5231 19.1958Z" stroke="white"/>
</g>
</g>
<path d="M129.392 27.289C129.449 27.6297 129.477 27.9587 129.477 28.276C129.477 28.9713 129.365 29.606 129.141 30.18C128.917 30.754 128.625 31.2067 128.266 31.538C127.906 31.8693 127.54 32.035 127.167 32.035C126.98 32.035 126.763 31.9673 126.516 31.832C126.273 31.692 126.063 31.5263 125.886 31.335C125.708 31.139 125.62 30.9663 125.62 30.817C125.62 30.4903 125.676 29.9653 125.788 29.242C125.9 28.5187 126.033 27.891 126.187 27.359C126.341 27.2843 126.502 27.247 126.67 27.247C126.847 27.247 127.001 27.296 127.132 27.394C127.262 27.4873 127.351 27.6203 127.398 27.793C127.262 28.1057 127.129 28.5467 126.999 29.116C126.873 29.6853 126.81 30.1497 126.81 30.509C126.81 30.859 126.877 31.034 127.013 31.034C127.213 31.034 127.409 30.9057 127.601 30.649C127.792 30.3877 127.948 30.0517 128.07 29.641C128.191 29.2257 128.252 28.8057 128.252 28.381C128.252 28.0637 128.214 27.765 128.14 27.485C128.373 27.2283 128.62 27.1 128.882 27.1C129.064 27.1 129.234 27.163 129.392 27.289ZM130.652 32C130.517 32 130.365 31.9603 130.197 31.881C130.034 31.797 129.894 31.7013 129.777 31.594C129.66 31.482 129.602 31.3863 129.602 31.307C129.602 31.2277 129.635 31.0317 129.7 30.719C129.765 30.4063 129.807 30.2057 129.826 30.117C129.966 29.473 130.059 29.0273 130.106 28.78L130.176 28.388C130.274 27.8467 130.363 27.4103 130.442 27.079C130.526 26.7477 130.61 26.582 130.694 26.582C130.792 26.582 130.92 26.624 131.079 26.708C131.242 26.792 131.385 26.89 131.506 27.002C131.627 27.114 131.688 27.212 131.688 27.296C131.688 27.408 131.667 27.5177 131.625 27.625C131.588 27.7277 131.529 27.863 131.45 28.031C131.375 28.1757 131.324 28.2877 131.296 28.367C131.207 28.6423 131.112 29.025 131.009 29.515C130.911 30.005 130.829 30.4787 130.764 30.936C130.913 30.8613 131.03 30.7983 131.114 30.747C131.198 30.691 131.296 30.6163 131.408 30.523C131.613 30.593 131.765 30.691 131.863 30.817C131.966 30.9383 132.017 31.0783 132.017 31.237C132.017 31.349 131.938 31.4657 131.779 31.587C131.62 31.7037 131.431 31.8017 131.212 31.881C130.993 31.9603 130.806 32 130.652 32ZM133.884 29.249C133.73 29.9537 133.63 30.5277 133.583 30.971C133.882 30.8263 134.122 30.677 134.304 30.523C134.51 30.593 134.661 30.691 134.759 30.817C134.862 30.9383 134.913 31.0783 134.913 31.237C134.913 31.349 134.834 31.4657 134.675 31.587C134.517 31.7037 134.328 31.8017 134.108 31.881C133.889 31.9603 133.702 32 133.548 32C133.413 32 133.261 31.9603 133.093 31.881C132.93 31.797 132.79 31.7013 132.673 31.594C132.557 31.482 132.498 31.3863 132.498 31.307C132.498 31.2417 132.522 31.1017 132.568 30.887C132.62 30.6677 132.664 30.481 132.701 30.327C132.743 30.1683 132.774 30.0517 132.792 29.977L132.96 29.305L132.533 29.333C132.454 29.2957 132.393 29.2373 132.351 29.158C132.309 29.0787 132.288 28.9877 132.288 28.885C132.288 28.6983 132.356 28.5397 132.491 28.409C132.659 28.4183 132.865 28.4277 133.107 28.437C133.107 28.1383 133.14 27.8093 133.205 27.45C133.271 27.086 133.343 26.904 133.422 26.904C133.52 26.904 133.644 26.946 133.793 27.03C133.943 27.114 134.073 27.212 134.185 27.324C134.297 27.436 134.353 27.534 134.353 27.618C134.353 27.7253 134.332 27.835 134.29 27.947C134.253 28.0543 134.19 28.2037 134.101 28.395C134.181 28.3857 134.381 28.353 134.703 28.297L134.864 28.269C134.948 28.3157 135.011 28.3833 135.053 28.472C135.1 28.5607 135.123 28.6563 135.123 28.759C135.123 28.843 135.107 28.9247 135.074 29.004C135.042 29.0833 134.993 29.151 134.927 29.207L133.884 29.249ZM136.821 27.849C136.733 27.849 136.625 27.814 136.499 27.744C136.378 27.6693 136.273 27.583 136.184 27.485C136.096 27.3823 136.051 27.2913 136.051 27.212C136.051 27.086 136.084 26.96 136.149 26.834C136.215 26.708 136.296 26.617 136.394 26.561C136.441 26.5377 136.516 26.526 136.618 26.526C136.786 26.526 136.954 26.5633 137.122 26.638C137.295 26.7127 137.4 26.806 137.437 26.918C137.447 26.9413 137.451 26.9763 137.451 27.023C137.451 27.1303 137.419 27.2493 137.353 27.38C137.288 27.5107 137.206 27.6227 137.108 27.716C137.01 27.8047 136.915 27.849 136.821 27.849ZM136.345 32C136.224 32 136.086 31.9603 135.932 31.881C135.783 31.797 135.652 31.7013 135.54 31.594C135.433 31.482 135.379 31.3887 135.379 31.314C135.379 31.23 135.41 31.1063 135.47 30.943C135.531 30.7797 135.622 30.5557 135.743 30.271C135.837 30.0517 135.907 29.8813 135.953 29.76C136 29.634 136.023 29.5453 136.023 29.494C136.023 29.4567 136 29.417 135.953 29.375C135.911 29.3283 135.846 29.2723 135.757 29.207C135.655 29.1277 135.578 29.0647 135.526 29.018C135.48 28.9713 135.456 28.9223 135.456 28.871C135.456 28.773 135.501 28.6587 135.589 28.528C135.683 28.3973 135.79 28.2853 135.911 28.192C136.037 28.0987 136.145 28.052 136.233 28.052C136.341 28.052 136.457 28.0987 136.583 28.192C136.714 28.2853 136.824 28.3973 136.912 28.528C137.006 28.654 137.052 28.7567 137.052 28.836C137.052 29.0413 136.999 29.3353 136.891 29.718C136.789 30.096 136.656 30.5043 136.492 30.943C136.604 30.8917 136.702 30.838 136.786 30.782C136.87 30.726 136.987 30.6397 137.136 30.523C137.346 30.593 137.5 30.6933 137.598 30.824C137.696 30.95 137.745 31.0877 137.745 31.237C137.745 31.3583 137.666 31.4773 137.507 31.594C137.353 31.7107 137.164 31.8087 136.94 31.888C136.716 31.9627 136.518 32 136.345 32ZM139.606 29.648C139.974 29.1627 140.259 28.808 140.46 28.584C140.66 28.3553 140.824 28.241 140.95 28.241C141.038 28.241 141.141 28.2783 141.258 28.353C141.379 28.4277 141.482 28.514 141.566 28.612C141.654 28.7053 141.696 28.78 141.692 28.836C141.687 28.9527 141.671 29.0787 141.643 29.214C141.615 29.3493 141.575 29.515 141.524 29.711C141.911 29.2163 142.214 28.8477 142.434 28.605C142.658 28.3623 142.833 28.241 142.959 28.241C143.047 28.241 143.155 28.2853 143.281 28.374C143.407 28.4627 143.514 28.5653 143.603 28.682C143.696 28.794 143.743 28.8803 143.743 28.941C143.738 29.0203 143.705 29.1557 143.645 29.347C143.584 29.5383 143.498 29.7927 143.386 30.11C143.236 30.5207 143.141 30.7983 143.099 30.943C143.248 30.8637 143.362 30.7983 143.442 30.747C143.526 30.691 143.624 30.6163 143.736 30.523C143.941 30.593 144.095 30.691 144.198 30.817C144.3 30.9383 144.352 31.0783 144.352 31.237C144.352 31.349 144.27 31.4657 144.107 31.587C143.948 31.7037 143.759 31.8017 143.54 31.881C143.32 31.9603 143.134 32 142.98 32C142.877 32 142.756 31.958 142.616 31.874C142.476 31.79 142.354 31.6943 142.252 31.587C142.149 31.475 142.098 31.3887 142.098 31.328C142.098 31.2907 142.121 31.202 142.168 31.062C142.214 30.9173 142.245 30.8193 142.259 30.768C142.347 30.488 142.413 30.2663 142.455 30.103C142.501 29.935 142.525 29.8113 142.525 29.732C142.525 29.676 142.513 29.648 142.49 29.648C142.294 29.648 141.946 29.9747 141.447 30.628C141.409 30.7633 141.374 30.9337 141.342 31.139C141.286 31.4377 141.237 31.657 141.195 31.797C141.153 31.9323 141.097 32 141.027 32C140.929 32 140.807 31.958 140.663 31.874C140.518 31.79 140.392 31.6943 140.285 31.587C140.177 31.475 140.124 31.384 140.124 31.314C140.124 31.2673 140.175 31.0853 140.278 30.768C140.362 30.502 140.427 30.285 140.474 30.117C140.52 29.9443 140.544 29.816 140.544 29.732C140.544 29.676 140.53 29.648 140.502 29.648C140.315 29.648 139.967 29.9747 139.459 30.628C139.44 30.7027 139.419 30.796 139.396 30.908C139.377 31.02 139.363 31.0993 139.354 31.146C139.302 31.4213 139.253 31.6337 139.207 31.783C139.165 31.9277 139.109 32 139.039 32C138.917 32 138.78 31.9603 138.626 31.881C138.476 31.797 138.346 31.7013 138.234 31.594C138.126 31.482 138.073 31.3887 138.073 31.314C138.073 31.23 138.103 31.1063 138.164 30.943C138.224 30.7797 138.315 30.5557 138.437 30.271C138.53 30.0517 138.6 29.8813 138.647 29.76C138.693 29.634 138.717 29.5453 138.717 29.494C138.717 29.4567 138.693 29.417 138.647 29.375C138.605 29.3283 138.539 29.2723 138.451 29.207C138.348 29.1277 138.271 29.0647 138.22 29.018C138.173 28.9713 138.15 28.9223 138.15 28.871C138.15 28.773 138.194 28.6587 138.283 28.528C138.376 28.3973 138.483 28.2853 138.605 28.192C138.731 28.0987 138.838 28.052 138.927 28.052C139.025 28.052 139.137 28.0963 139.263 28.185C139.393 28.2737 139.505 28.3763 139.599 28.493C139.697 28.605 139.746 28.6913 139.746 28.752C139.746 28.864 139.732 29.0017 139.704 29.165C139.68 29.3283 139.648 29.4893 139.606 29.648ZM147.924 30.971C148.209 30.831 148.449 30.6817 148.645 30.523C148.85 30.593 149.002 30.691 149.1 30.817C149.203 30.9383 149.254 31.0783 149.254 31.237C149.254 31.349 149.175 31.4657 149.016 31.587C148.857 31.7037 148.668 31.8017 148.449 31.881C148.23 31.9603 148.043 32 147.889 32C147.782 32 147.658 31.9603 147.518 31.881C147.383 31.8017 147.264 31.7083 147.161 31.601C147.063 31.4937 147.014 31.4097 147.014 31.349C147.014 31.3023 147.033 31.2393 147.07 31.16C147.112 31.0807 147.156 30.999 147.203 30.915C147.25 30.831 147.28 30.775 147.294 30.747L147.119 30.649C146.872 31.055 146.634 31.3817 146.405 31.629C146.181 31.8763 145.959 32 145.74 32C145.591 32 145.432 31.9347 145.264 31.804C145.101 31.6733 144.961 31.5147 144.844 31.328C144.732 31.1413 144.676 30.9757 144.676 30.831C144.676 30.4157 144.762 29.991 144.935 29.557C145.108 29.123 145.348 28.7637 145.656 28.479C145.969 28.1943 146.321 28.052 146.713 28.052C146.853 28.052 146.995 28.115 147.14 28.241C147.285 28.367 147.378 28.4953 147.42 28.626C147.443 28.5233 147.476 28.4347 147.518 28.36C147.565 28.2807 147.614 28.241 147.665 28.241C147.786 28.241 147.919 28.2853 148.064 28.374C148.213 28.458 148.339 28.5583 148.442 28.675C148.545 28.787 148.596 28.8757 148.596 28.941C148.591 29.0297 148.554 29.1767 148.484 29.382C148.419 29.5873 148.311 29.9 148.162 30.32C148.073 30.5487 147.994 30.7657 147.924 30.971ZM145.775 31.027C146.153 30.7937 146.482 30.5067 146.762 30.166C147.042 29.8207 147.233 29.4403 147.336 29.025C147.21 28.969 147.091 28.941 146.979 28.941C146.76 28.941 146.564 29.039 146.391 29.235C146.218 29.431 146.081 29.6877 145.978 30.005C145.875 30.3223 145.808 30.663 145.775 31.027ZM151.124 29.249C150.97 29.9537 150.87 30.5277 150.823 30.971C151.122 30.8263 151.362 30.677 151.544 30.523C151.75 30.593 151.901 30.691 151.999 30.817C152.102 30.9383 152.153 31.0783 152.153 31.237C152.153 31.349 152.074 31.4657 151.915 31.587C151.757 31.7037 151.568 31.8017 151.348 31.881C151.129 31.9603 150.942 32 150.788 32C150.653 32 150.501 31.9603 150.333 31.881C150.17 31.797 150.03 31.7013 149.913 31.594C149.797 31.482 149.738 31.3863 149.738 31.307C149.738 31.2417 149.762 31.1017 149.808 30.887C149.86 30.6677 149.904 30.481 149.941 30.327C149.983 30.1683 150.014 30.0517 150.032 29.977L150.2 29.305L149.773 29.333C149.694 29.2957 149.633 29.2373 149.591 29.158C149.549 29.0787 149.528 28.9877 149.528 28.885C149.528 28.6983 149.596 28.5397 149.731 28.409C149.899 28.4183 150.105 28.4277 150.347 28.437C150.347 28.1383 150.38 27.8093 150.445 27.45C150.511 27.086 150.583 26.904 150.662 26.904C150.76 26.904 150.884 26.946 151.033 27.03C151.183 27.114 151.313 27.212 151.425 27.324C151.537 27.436 151.593 27.534 151.593 27.618C151.593 27.7253 151.572 27.835 151.53 27.947C151.493 28.0543 151.43 28.2037 151.341 28.395C151.421 28.3857 151.621 28.353 151.943 28.297L152.104 28.269C152.188 28.3157 152.251 28.3833 152.293 28.472C152.34 28.5607 152.363 28.6563 152.363 28.759C152.363 28.843 152.347 28.9247 152.314 29.004C152.282 29.0833 152.233 29.151 152.167 29.207L151.124 29.249ZM154.146 32C153.922 32 153.688 31.9277 153.446 31.783C153.203 31.6337 153.002 31.4517 152.844 31.237C152.685 31.0223 152.606 30.8193 152.606 30.628C152.606 30.2873 152.685 29.914 152.844 29.508C153.007 29.102 153.231 28.759 153.516 28.479C153.8 28.1943 154.122 28.052 154.482 28.052C154.738 28.052 154.969 28.108 155.175 28.22C155.385 28.332 155.548 28.472 155.665 28.64C155.781 28.808 155.84 28.9713 155.84 29.13C155.84 29.326 155.751 29.5197 155.574 29.711C155.396 29.8977 155.149 30.0633 154.832 30.208C154.514 30.348 154.153 30.4483 153.747 30.509C153.742 30.565 153.74 30.649 153.74 30.761C153.74 30.901 153.744 31.006 153.754 31.076C153.987 31.0527 154.218 30.9897 154.447 30.887C154.675 30.7843 154.925 30.6397 155.196 30.453C155.378 30.509 155.515 30.5977 155.609 30.719C155.702 30.8403 155.749 30.985 155.749 31.153C155.749 31.293 155.662 31.4307 155.49 31.566C155.322 31.6967 155.112 31.8017 154.86 31.881C154.608 31.9603 154.37 32 154.146 32ZM153.852 29.984C154.136 29.8813 154.374 29.7507 154.566 29.592C154.757 29.4333 154.853 29.298 154.853 29.186C154.853 29.0553 154.762 28.9667 154.58 28.92C154.402 29.0507 154.251 29.207 154.125 29.389C154.003 29.571 153.912 29.7693 153.852 29.984ZM159.984 32C159.895 32 159.767 31.9627 159.599 31.888C159.431 31.8087 159.274 31.7177 159.13 31.615C158.99 31.5077 158.91 31.4167 158.892 31.342C158.868 31.2393 158.826 30.81 158.766 30.054C158.747 29.7507 158.731 29.529 158.717 29.389C158.707 29.2677 158.698 29.1767 158.689 29.116C158.628 28.4907 158.598 28.038 158.598 27.758C158.598 27.4453 158.633 27.2797 158.703 27.261C158.721 27.2563 158.752 27.254 158.794 27.254C158.896 27.254 159.022 27.2797 159.172 27.331C159.326 27.3777 159.461 27.4383 159.578 27.513C159.694 27.5877 159.762 27.66 159.781 27.73C159.79 27.758 159.795 27.863 159.795 28.045C159.795 28.3017 159.788 28.6167 159.774 28.99C159.755 29.5967 159.746 30.0657 159.746 30.397V30.649C160.142 29.781 160.586 28.6167 161.076 27.156C161.216 27.1093 161.358 27.086 161.503 27.086C161.694 27.086 161.855 27.1373 161.986 27.24C162.121 27.3427 162.21 27.499 162.252 27.709C160.94 30.5697 160.184 32 159.984 32ZM163.34 32C163.116 32 162.883 31.9277 162.64 31.783C162.397 31.6337 162.197 31.4517 162.038 31.237C161.879 31.0223 161.8 30.8193 161.8 30.628C161.8 30.2873 161.879 29.914 162.038 29.508C162.201 29.102 162.425 28.759 162.71 28.479C162.995 28.1943 163.317 28.052 163.676 28.052C163.933 28.052 164.164 28.108 164.369 28.22C164.579 28.332 164.742 28.472 164.859 28.64C164.976 28.808 165.034 28.9713 165.034 29.13C165.034 29.326 164.945 29.5197 164.768 29.711C164.591 29.8977 164.343 30.0633 164.026 30.208C163.709 30.348 163.347 30.4483 162.941 30.509C162.936 30.565 162.934 30.649 162.934 30.761C162.934 30.901 162.939 31.006 162.948 31.076C163.181 31.0527 163.412 30.9897 163.641 30.887C163.87 30.7843 164.119 30.6397 164.39 30.453C164.572 30.509 164.71 30.5977 164.803 30.719C164.896 30.8403 164.943 30.985 164.943 31.153C164.943 31.293 164.857 31.4307 164.684 31.566C164.516 31.6967 164.306 31.8017 164.054 31.881C163.802 31.9603 163.564 32 163.34 32ZM163.046 29.984C163.331 29.8813 163.569 29.7507 163.76 29.592C163.951 29.4333 164.047 29.298 164.047 29.186C164.047 29.0553 163.956 28.9667 163.774 28.92C163.597 29.0507 163.445 29.207 163.319 29.389C163.198 29.571 163.107 29.7693 163.046 29.984ZM166.704 30.53C166.69 30.894 166.655 31.23 166.599 31.538C166.543 31.846 166.466 32 166.368 32C166.251 32 166.116 31.9603 165.962 31.881C165.808 31.8017 165.675 31.7083 165.563 31.601C165.455 31.489 165.402 31.3933 165.402 31.314C165.402 31.258 165.42 31.1623 165.458 31.027C165.495 30.887 165.539 30.733 165.591 30.565C165.773 29.9677 165.915 29.4333 166.018 28.962C166.074 28.7007 166.123 28.43 166.165 28.15C166.23 27.7767 166.286 27.4897 166.333 27.289C166.379 27.0883 166.438 26.9203 166.508 26.785C166.582 26.645 166.673 26.575 166.781 26.575C166.86 26.575 166.977 26.624 167.131 26.722C167.289 26.8153 167.429 26.925 167.551 27.051C167.672 27.1723 167.733 27.2727 167.733 27.352C167.733 27.422 167.707 27.5013 167.656 27.59C167.609 27.674 167.53 27.7953 167.418 27.954C167.394 27.9867 167.35 28.052 167.285 28.15C167.224 28.248 167.18 28.3297 167.152 28.395C167.096 28.5303 167.033 28.703 166.963 28.913C166.897 29.123 166.841 29.3283 166.795 29.529L166.921 29.599C167.224 29.1883 167.488 28.8593 167.712 28.612C167.94 28.3647 168.118 28.241 168.244 28.241C168.332 28.241 168.44 28.2853 168.566 28.374C168.692 28.4627 168.801 28.5653 168.895 28.682C168.988 28.794 169.035 28.8803 169.035 28.941C169.03 29.025 169.002 29.1463 168.951 29.305C168.904 29.459 168.829 29.676 168.727 29.956C168.596 30.292 168.479 30.621 168.377 30.943C168.521 30.887 168.643 30.831 168.741 30.775C168.839 30.719 168.953 30.642 169.084 30.544C169.28 30.628 169.422 30.733 169.511 30.859C169.604 30.985 169.646 31.139 169.637 31.321C169.637 31.433 169.55 31.5403 169.378 31.643C169.21 31.7457 169.014 31.832 168.79 31.902C168.57 31.9673 168.395 32 168.265 32C168.157 32 168.034 31.958 167.894 31.874C167.754 31.79 167.632 31.6943 167.53 31.587C167.427 31.475 167.378 31.3887 167.383 31.328C167.383 31.2907 167.406 31.202 167.453 31.062C167.499 30.9173 167.53 30.8193 167.544 30.768C167.632 30.488 167.698 30.2663 167.74 30.103C167.786 29.935 167.81 29.8113 167.81 29.732C167.81 29.676 167.798 29.648 167.775 29.648C167.672 29.648 167.518 29.7367 167.313 29.914C167.107 30.0913 166.904 30.2967 166.704 30.53ZM171.425 27.849C171.336 27.849 171.229 27.814 171.103 27.744C170.982 27.6693 170.877 27.583 170.788 27.485C170.699 27.3823 170.655 27.2913 170.655 27.212C170.655 27.086 170.688 26.96 170.753 26.834C170.818 26.708 170.9 26.617 170.998 26.561C171.045 26.5377 171.119 26.526 171.222 26.526C171.39 26.526 171.558 26.5633 171.726 26.638C171.899 26.7127 172.004 26.806 172.041 26.918C172.05 26.9413 172.055 26.9763 172.055 27.023C172.055 27.1303 172.022 27.2493 171.957 27.38C171.892 27.5107 171.81 27.6227 171.712 27.716C171.614 27.8047 171.518 27.849 171.425 27.849ZM170.949 32C170.828 32 170.69 31.9603 170.536 31.881C170.387 31.797 170.256 31.7013 170.144 31.594C170.037 31.482 169.983 31.3887 169.983 31.314C169.983 31.23 170.013 31.1063 170.074 30.943C170.135 30.7797 170.226 30.5557 170.347 30.271C170.44 30.0517 170.51 29.8813 170.557 29.76C170.604 29.634 170.627 29.5453 170.627 29.494C170.627 29.4567 170.604 29.417 170.557 29.375C170.515 29.3283 170.45 29.2723 170.361 29.207C170.258 29.1277 170.181 29.0647 170.13 29.018C170.083 28.9713 170.06 28.9223 170.06 28.871C170.06 28.773 170.104 28.6587 170.193 28.528C170.286 28.3973 170.394 28.2853 170.515 28.192C170.641 28.0987 170.748 28.052 170.837 28.052C170.944 28.052 171.061 28.0987 171.187 28.192C171.318 28.2853 171.427 28.3973 171.516 28.528C171.609 28.654 171.656 28.7567 171.656 28.836C171.656 29.0413 171.602 29.3353 171.495 29.718C171.392 30.096 171.259 30.5043 171.096 30.943C171.208 30.8917 171.306 30.838 171.39 30.782C171.474 30.726 171.591 30.6397 171.74 30.523C171.95 30.593 172.104 30.6933 172.202 30.824C172.3 30.95 172.349 31.0877 172.349 31.237C172.349 31.3583 172.27 31.4773 172.111 31.594C171.957 31.7107 171.768 31.8087 171.544 31.888C171.32 31.9627 171.122 32 170.949 32ZM173.81 31.076C174.249 31.0573 174.655 30.831 175.028 30.397C175.257 30.439 175.439 30.5253 175.574 30.656C175.714 30.7867 175.784 30.9523 175.784 31.153C175.784 31.2977 175.7 31.4353 175.532 31.566C175.369 31.6967 175.164 31.8017 174.916 31.881C174.669 31.9603 174.431 32 174.202 32C173.978 32 173.745 31.9277 173.502 31.783C173.26 31.6337 173.059 31.4517 172.9 31.237C172.742 31.0223 172.662 30.8193 172.662 30.628C172.662 30.2593 172.746 29.8743 172.914 29.473C173.087 29.067 173.325 28.7287 173.628 28.458C173.932 28.1873 174.272 28.052 174.65 28.052C174.884 28.052 175.105 28.094 175.315 28.178C175.525 28.262 175.693 28.374 175.819 28.514C175.945 28.654 176.008 28.7987 176.008 28.948C176.008 29.0927 175.945 29.2233 175.819 29.34C175.693 29.452 175.528 29.508 175.322 29.508C175.257 29.508 175.189 29.501 175.119 29.487C175.003 29.2023 174.874 29.0017 174.734 28.885C174.426 29.0857 174.193 29.3657 174.034 29.725C173.876 30.0843 173.796 30.4507 173.796 30.824C173.796 30.88 173.801 30.964 173.81 31.076ZM177.287 32C177.151 32 177 31.9603 176.832 31.881C176.668 31.797 176.528 31.7013 176.412 31.594C176.295 31.482 176.237 31.3863 176.237 31.307C176.237 31.2277 176.269 31.0317 176.335 30.719C176.4 30.4063 176.442 30.2057 176.461 30.117C176.601 29.473 176.694 29.0273 176.741 28.78L176.811 28.388C176.909 27.8467 176.997 27.4103 177.077 27.079C177.161 26.7477 177.245 26.582 177.329 26.582C177.427 26.582 177.555 26.624 177.714 26.708C177.877 26.792 178.019 26.89 178.141 27.002C178.262 27.114 178.323 27.212 178.323 27.296C178.323 27.408 178.302 27.5177 178.26 27.625C178.222 27.7277 178.164 27.863 178.085 28.031C178.01 28.1757 177.959 28.2877 177.931 28.367C177.842 28.6423 177.746 29.025 177.644 29.515C177.546 30.005 177.464 30.4787 177.399 30.936C177.548 30.8613 177.665 30.7983 177.749 30.747C177.833 30.691 177.931 30.6163 178.043 30.523C178.248 30.593 178.4 30.691 178.498 30.817C178.6 30.9383 178.652 31.0783 178.652 31.237C178.652 31.349 178.572 31.4657 178.414 31.587C178.255 31.7037 178.066 31.8017 177.847 31.881C177.627 31.9603 177.441 32 177.287 32ZM180.505 32C180.281 32 180.048 31.9277 179.805 31.783C179.562 31.6337 179.362 31.4517 179.203 31.237C179.044 31.0223 178.965 30.8193 178.965 30.628C178.965 30.2873 179.044 29.914 179.203 29.508C179.366 29.102 179.59 28.759 179.875 28.479C180.16 28.1943 180.482 28.052 180.841 28.052C181.098 28.052 181.329 28.108 181.534 28.22C181.744 28.332 181.907 28.472 182.024 28.64C182.141 28.808 182.199 28.9713 182.199 29.13C182.199 29.326 182.11 29.5197 181.933 29.711C181.756 29.8977 181.508 30.0633 181.191 30.208C180.874 30.348 180.512 30.4483 180.106 30.509C180.101 30.565 180.099 30.649 180.099 30.761C180.099 30.901 180.104 31.006 180.113 31.076C180.346 31.0527 180.577 30.9897 180.806 30.887C181.035 30.7843 181.284 30.6397 181.555 30.453C181.737 30.509 181.875 30.5977 181.968 30.719C182.061 30.8403 182.108 30.985 182.108 31.153C182.108 31.293 182.022 31.4307 181.849 31.566C181.681 31.6967 181.471 31.8017 181.219 31.881C180.967 31.9603 180.729 32 180.505 32ZM180.211 29.984C180.496 29.8813 180.734 29.7507 180.925 29.592C181.116 29.4333 181.212 29.298 181.212 29.186C181.212 29.0553 181.121 28.9667 180.939 28.92C180.762 29.0507 180.61 29.207 180.484 29.389C180.363 29.571 180.272 29.7693 180.211 29.984ZM186.672 28.843C186.709 28.6097 186.728 28.423 186.728 28.283C186.728 28.185 186.719 28.108 186.7 28.052C186.686 27.996 186.667 27.968 186.644 27.968C186.574 27.968 186.492 28.0263 186.399 28.143C186.31 28.2597 186.233 28.3997 186.168 28.563C186.107 28.7217 186.077 28.864 186.077 28.99C186.077 29.1487 186.154 29.3097 186.308 29.473C186.467 29.6317 186.698 29.8277 187.001 30.061C187.23 30.229 187.4 30.369 187.512 30.481C187.624 30.5883 187.682 30.6863 187.687 30.775C187.692 30.971 187.589 31.1647 187.379 31.356C187.169 31.5427 186.905 31.6967 186.588 31.818C186.275 31.9393 185.984 32 185.713 32C185.503 32 185.286 31.9487 185.062 31.846C184.838 31.7387 184.651 31.615 184.502 31.475C184.353 31.3303 184.276 31.2043 184.271 31.097C184.262 30.8917 184.329 30.726 184.474 30.6C184.619 30.4693 184.812 30.404 185.055 30.404C185.176 30.404 185.3 30.4203 185.426 30.453C185.482 30.761 185.531 30.9827 185.573 31.118C185.848 31.048 186.147 30.9267 186.469 30.754C185.428 29.9653 184.908 29.3493 184.908 28.906C184.908 28.6913 184.987 28.4347 185.146 28.136C185.305 27.8327 185.515 27.5737 185.776 27.359C186.037 27.1397 186.313 27.03 186.602 27.03C186.817 27.03 187.024 27.1023 187.225 27.247C187.426 27.3917 187.589 27.569 187.715 27.779C187.841 27.989 187.904 28.185 187.904 28.367C187.904 28.5443 187.832 28.6867 187.687 28.794C187.547 28.8967 187.372 28.948 187.162 28.948C186.999 28.948 186.835 28.913 186.672 28.843ZM189.666 28.045C189.997 28.0823 190.298 28.1827 190.569 28.346C190.844 28.5047 191.059 28.696 191.213 28.92C191.367 29.144 191.444 29.368 191.444 29.592C191.444 29.928 191.357 30.285 191.185 30.663C191.012 31.041 190.772 31.3583 190.464 31.615C190.156 31.8717 189.813 32 189.435 32C189.248 32 189.05 31.9323 188.84 31.797C188.63 31.657 188.452 31.489 188.308 31.293C188.168 31.0923 188.098 30.915 188.098 30.761C188.098 30.4763 188.133 30.1847 188.203 29.886C188.273 29.5827 188.38 29.2887 188.525 29.004C188.66 28.9293 188.795 28.892 188.931 28.892C188.991 28.892 189.047 28.899 189.099 28.913C189.08 28.857 189.071 28.7917 189.071 28.717C189.071 28.5677 189.122 28.4323 189.225 28.311C189.332 28.1897 189.479 28.101 189.666 28.045ZM189.183 31.202C189.57 31.0713 189.871 30.8473 190.086 30.53C190.3 30.2127 190.443 29.8347 190.513 29.396C190.303 29.2467 190.018 29.172 189.659 29.172C189.57 29.172 189.502 29.1743 189.456 29.179C189.507 29.2723 189.533 29.3773 189.533 29.494C189.411 29.6853 189.318 29.8977 189.253 30.131C189.187 30.3597 189.155 30.5907 189.155 30.824C189.155 30.964 189.164 31.09 189.183 31.202ZM192.695 32C192.56 32 192.408 31.9603 192.24 31.881C192.077 31.797 191.937 31.7013 191.82 31.594C191.703 31.482 191.645 31.3863 191.645 31.307C191.645 31.2277 191.678 31.0317 191.743 30.719C191.808 30.4063 191.85 30.2057 191.869 30.117C192.009 29.473 192.102 29.0273 192.149 28.78L192.219 28.388C192.317 27.8467 192.406 27.4103 192.485 27.079C192.569 26.7477 192.653 26.582 192.737 26.582C192.835 26.582 192.963 26.624 193.122 26.708C193.285 26.792 193.428 26.89 193.549 27.002C193.67 27.114 193.731 27.212 193.731 27.296C193.731 27.408 193.71 27.5177 193.668 27.625C193.631 27.7277 193.572 27.863 193.493 28.031C193.418 28.1757 193.367 28.2877 193.339 28.367C193.25 28.6423 193.155 29.025 193.052 29.515C192.954 30.005 192.872 30.4787 192.807 30.936C192.956 30.8613 193.073 30.7983 193.157 30.747C193.241 30.691 193.339 30.6163 193.451 30.523C193.656 30.593 193.808 30.691 193.906 30.817C194.009 30.9383 194.06 31.0783 194.06 31.237C194.06 31.349 193.981 31.4657 193.822 31.587C193.663 31.7037 193.474 31.8017 193.255 31.881C193.036 31.9603 192.849 32 192.695 32ZM195.395 32C195.274 32 195.141 31.9557 194.996 31.867C194.856 31.7737 194.737 31.6687 194.639 31.552C194.541 31.4307 194.492 31.3327 194.492 31.258C194.492 31.1833 194.513 31.076 194.555 30.936C194.602 30.796 194.649 30.656 194.695 30.516C194.747 30.376 194.779 30.2873 194.793 30.25C194.854 30.0867 194.908 29.9327 194.954 29.788C195.006 29.6433 195.031 29.5453 195.031 29.494C195.031 29.4567 195.008 29.417 194.961 29.375C194.919 29.3283 194.854 29.2723 194.765 29.207C194.663 29.1277 194.586 29.0647 194.534 29.018C194.488 28.9713 194.464 28.9223 194.464 28.871C194.464 28.773 194.509 28.6587 194.597 28.528C194.691 28.3973 194.798 28.2853 194.919 28.192C195.045 28.0987 195.153 28.052 195.241 28.052C195.339 28.052 195.451 28.0963 195.577 28.185C195.708 28.2737 195.82 28.3763 195.913 28.493C196.011 28.605 196.06 28.6913 196.06 28.752C196.06 29.0413 196.011 29.389 195.913 29.795C195.815 30.201 195.689 30.6047 195.535 31.006C195.843 30.7493 196.119 30.4647 196.361 30.152C196.604 29.8393 196.774 29.5593 196.872 29.312C196.882 29.0087 196.917 28.7543 196.977 28.549C197.043 28.3437 197.117 28.241 197.201 28.241C197.323 28.241 197.456 28.2853 197.6 28.374C197.75 28.458 197.876 28.5583 197.978 28.675C198.081 28.787 198.132 28.8757 198.132 28.941C198.128 29.039 198.083 29.2233 197.999 29.494C197.915 29.76 197.799 30.103 197.649 30.523C197.561 30.7843 197.509 30.9337 197.495 30.971C197.631 30.9103 197.752 30.8473 197.859 30.782C197.971 30.712 198.088 30.6257 198.209 30.523C198.415 30.593 198.566 30.691 198.664 30.817C198.767 30.9383 198.818 31.0783 198.818 31.237C198.818 31.349 198.739 31.4657 198.58 31.587C198.422 31.7037 198.233 31.8017 198.013 31.881C197.794 31.9603 197.607 32 197.453 32C197.355 32 197.239 31.9603 197.103 31.881C196.968 31.797 196.847 31.7037 196.739 31.601C196.637 31.4937 196.585 31.4143 196.585 31.363C196.585 31.3117 196.602 31.2487 196.634 31.174C196.672 31.0993 196.711 31.02 196.753 30.936C196.8 30.8473 196.835 30.7843 196.858 30.747L196.683 30.649C196.427 31.1203 196.205 31.4633 196.018 31.678C195.836 31.8927 195.629 32 195.395 32ZM200.685 29.249C200.531 29.9537 200.431 30.5277 200.384 30.971C200.683 30.8263 200.923 30.677 201.105 30.523C201.31 30.593 201.462 30.691 201.56 30.817C201.663 30.9383 201.714 31.0783 201.714 31.237C201.714 31.349 201.635 31.4657 201.476 31.587C201.317 31.7037 201.128 31.8017 200.909 31.881C200.69 31.9603 200.503 32 200.349 32C200.214 32 200.062 31.9603 199.894 31.881C199.731 31.797 199.591 31.7013 199.474 31.594C199.357 31.482 199.299 31.3863 199.299 31.307C199.299 31.2417 199.322 31.1017 199.369 30.887C199.42 30.6677 199.465 30.481 199.502 30.327C199.544 30.1683 199.574 30.0517 199.593 29.977L199.761 29.305L199.334 29.333C199.255 29.2957 199.194 29.2373 199.152 29.158C199.11 29.0787 199.089 28.9877 199.089 28.885C199.089 28.6983 199.157 28.5397 199.292 28.409C199.46 28.4183 199.665 28.4277 199.908 28.437C199.908 28.1383 199.941 27.8093 200.006 27.45C200.071 27.086 200.144 26.904 200.223 26.904C200.321 26.904 200.445 26.946 200.594 27.03C200.743 27.114 200.874 27.212 200.986 27.324C201.098 27.436 201.154 27.534 201.154 27.618C201.154 27.7253 201.133 27.835 201.091 27.947C201.054 28.0543 200.991 28.2037 200.902 28.395C200.981 28.3857 201.182 28.353 201.504 28.297L201.665 28.269C201.749 28.3157 201.812 28.3833 201.854 28.472C201.901 28.5607 201.924 28.6563 201.924 28.759C201.924 28.843 201.908 28.9247 201.875 29.004C201.842 29.0833 201.793 29.151 201.728 29.207L200.685 29.249ZM203.622 27.849C203.534 27.849 203.426 27.814 203.3 27.744C203.179 27.6693 203.074 27.583 202.985 27.485C202.897 27.3823 202.852 27.2913 202.852 27.212C202.852 27.086 202.885 26.96 202.95 26.834C203.016 26.708 203.097 26.617 203.195 26.561C203.242 26.5377 203.317 26.526 203.419 26.526C203.587 26.526 203.755 26.5633 203.923 26.638C204.096 26.7127 204.201 26.806 204.238 26.918C204.248 26.9413 204.252 26.9763 204.252 27.023C204.252 27.1303 204.22 27.2493 204.154 27.38C204.089 27.5107 204.007 27.6227 203.909 27.716C203.811 27.8047 203.716 27.849 203.622 27.849ZM203.146 32C203.025 32 202.887 31.9603 202.733 31.881C202.584 31.797 202.453 31.7013 202.341 31.594C202.234 31.482 202.18 31.3887 202.18 31.314C202.18 31.23 202.211 31.1063 202.271 30.943C202.332 30.7797 202.423 30.5557 202.544 30.271C202.638 30.0517 202.708 29.8813 202.754 29.76C202.801 29.634 202.824 29.5453 202.824 29.494C202.824 29.4567 202.801 29.417 202.754 29.375C202.712 29.3283 202.647 29.2723 202.558 29.207C202.456 29.1277 202.379 29.0647 202.327 29.018C202.281 28.9713 202.257 28.9223 202.257 28.871C202.257 28.773 202.302 28.6587 202.39 28.528C202.484 28.3973 202.591 28.2853 202.712 28.192C202.838 28.0987 202.946 28.052 203.034 28.052C203.142 28.052 203.258 28.0987 203.384 28.192C203.515 28.2853 203.625 28.3973 203.713 28.528C203.807 28.654 203.853 28.7567 203.853 28.836C203.853 29.0413 203.8 29.3353 203.692 29.718C203.59 30.096 203.457 30.5043 203.293 30.943C203.405 30.8917 203.503 30.838 203.587 30.782C203.671 30.726 203.788 30.6397 203.937 30.523C204.147 30.593 204.301 30.6933 204.399 30.824C204.497 30.95 204.546 31.0877 204.546 31.237C204.546 31.3583 204.467 31.4773 204.308 31.594C204.154 31.7107 203.965 31.8087 203.741 31.888C203.517 31.9627 203.319 32 203.146 32ZM206.421 28.045C206.752 28.0823 207.053 28.1827 207.324 28.346C207.599 28.5047 207.814 28.696 207.968 28.92C208.122 29.144 208.199 29.368 208.199 29.592C208.199 29.928 208.112 30.285 207.94 30.663C207.767 31.041 207.527 31.3583 207.219 31.615C206.911 31.8717 206.568 32 206.19 32C206.003 32 205.805 31.9323 205.595 31.797C205.385 31.657 205.207 31.489 205.063 31.293C204.923 31.0923 204.853 30.915 204.853 30.761C204.853 30.4763 204.888 30.1847 204.958 29.886C205.028 29.5827 205.135 29.2887 205.28 29.004C205.415 28.9293 205.55 28.892 205.686 28.892C205.746 28.892 205.802 28.899 205.854 28.913C205.835 28.857 205.826 28.7917 205.826 28.717C205.826 28.5677 205.877 28.4323 205.98 28.311C206.087 28.1897 206.234 28.101 206.421 28.045ZM205.938 31.202C206.325 31.0713 206.626 30.8473 206.841 30.53C207.055 30.2127 207.198 29.8347 207.268 29.396C207.058 29.2467 206.773 29.172 206.414 29.172C206.325 29.172 206.257 29.1743 206.211 29.179C206.262 29.2723 206.288 29.3773 206.288 29.494C206.166 29.6853 206.073 29.8977 206.008 30.131C205.942 30.3597 205.91 30.5907 205.91 30.824C205.91 30.964 205.919 31.09 205.938 31.202ZM212.131 30.523C212.336 30.593 212.488 30.691 212.586 30.817C212.688 30.9383 212.74 31.0783 212.74 31.237C212.74 31.349 212.66 31.4657 212.502 31.587C212.343 31.7037 212.154 31.8017 211.935 31.881C211.715 31.9603 211.529 32 211.375 32C211.267 32 211.144 31.958 211.004 31.874C210.864 31.79 210.742 31.6943 210.64 31.587C210.542 31.475 210.493 31.3887 210.493 31.328C210.493 31.2813 210.544 31.0993 210.647 30.782C210.829 30.2267 210.92 29.8767 210.92 29.732C210.92 29.676 210.906 29.648 210.878 29.648C210.691 29.648 210.343 29.9747 209.835 30.628C209.816 30.7027 209.795 30.796 209.772 30.908C209.753 31.02 209.739 31.0993 209.73 31.146C209.678 31.4213 209.629 31.6337 209.583 31.783C209.541 31.9277 209.485 32 209.415 32C209.293 32 209.156 31.9603 209.002 31.881C208.852 31.797 208.722 31.7013 208.61 31.594C208.502 31.482 208.449 31.3887 208.449 31.314C208.449 31.23 208.479 31.1063 208.54 30.943C208.6 30.7797 208.691 30.5557 208.813 30.271C208.906 30.0517 208.976 29.8813 209.023 29.76C209.069 29.634 209.093 29.5453 209.093 29.494C209.093 29.4567 209.069 29.417 209.023 29.375C208.981 29.3283 208.915 29.2723 208.827 29.207C208.724 29.1277 208.647 29.0647 208.596 29.018C208.549 28.9713 208.526 28.9223 208.526 28.871C208.526 28.773 208.57 28.6587 208.659 28.528C208.752 28.3973 208.859 28.2853 208.981 28.192C209.107 28.0987 209.214 28.052 209.303 28.052C209.401 28.052 209.513 28.0963 209.639 28.185C209.769 28.2737 209.881 28.3763 209.975 28.493C210.073 28.605 210.122 28.6913 210.122 28.752C210.122 28.864 210.108 29.0017 210.08 29.165C210.056 29.3283 210.024 29.4893 209.982 29.648C210.322 29.2 210.605 28.8547 210.829 28.612C211.053 28.3647 211.228 28.241 211.354 28.241C211.442 28.241 211.55 28.2853 211.676 28.374C211.802 28.4627 211.909 28.5653 211.998 28.682C212.091 28.794 212.138 28.8803 212.138 28.941C212.133 29.0203 212.1 29.1557 212.04 29.347C211.979 29.5383 211.893 29.7927 211.781 30.11C211.631 30.5207 211.536 30.7983 211.494 30.943C211.638 30.8683 211.75 30.8053 211.83 30.754C211.914 30.698 212.014 30.621 212.131 30.523Z" fill="#005DEA"/>
<path d="M63.6943 14.0156H71.5244C71.8708 14.028 72.1553 14.1579 72.3779 14.4053C72.613 14.6527 72.7305 14.9495 72.7305 15.2959C72.6686 16.0381 72.2666 16.4401 71.5244 16.502H64.3252C63.8551 16.5267 63.4655 16.7061 63.1562 17.04C62.847 17.374 62.6182 17.7575 62.4697 18.1904C62.3337 18.611 62.2656 19.0439 62.2656 19.4893C62.2656 19.9346 62.3337 20.3737 62.4697 20.8066C62.6182 21.2272 62.847 21.6045 63.1562 21.9385C63.4655 22.2725 63.8551 22.4518 64.3252 22.4766H69.9658C70.1885 22.4642 70.306 22.3405 70.3184 22.1055V21.0293C70.306 20.7819 70.1885 20.6582 69.9658 20.6582H65.2158C64.8695 20.6582 64.5726 20.5407 64.3252 20.3057C64.0902 20.0583 63.9727 19.7614 63.9727 19.415C63.9727 19.0687 64.0902 18.7718 64.3252 18.5244C64.5726 18.2894 64.8695 18.1719 65.2158 18.1719H71.5615C71.9079 18.1719 72.2048 18.2894 72.4521 18.5244C72.6748 18.7594 72.7923 19.0439 72.8047 19.3779V19.415V23.7568C72.7923 24.0908 72.6748 24.3691 72.4521 24.5918C72.2171 24.8268 71.9326 24.9505 71.5986 24.9629H63.6943C62.8285 24.9134 62.111 24.5856 61.542 23.9795C60.9854 23.361 60.5833 22.6621 60.3359 21.8828C60.1009 21.1035 59.9834 20.3057 59.9834 19.4893C59.9834 18.6729 60.1071 17.875 60.3545 17.0957C60.6019 16.3164 61.0039 15.6237 61.5605 15.0176C62.1172 14.3991 62.8285 14.0651 63.6943 14.0156ZM85.4775 23.9795V19.5078C85.4775 19.1986 85.3167 19.0378 84.9951 19.0254H78.501C78.266 19.0378 78.0618 19.1429 77.8887 19.3408C77.7155 19.5264 77.5856 19.749 77.499 20.0088C77.4248 20.2562 77.3877 20.5098 77.3877 20.7695C77.3877 21.0169 77.4248 21.2705 77.499 21.5303C77.5856 21.7777 77.7155 22.0003 77.8887 22.1982C78.0618 22.3838 78.266 22.4766 78.501 22.4766H83.251C83.5973 22.4766 83.888 22.6003 84.123 22.8477C84.3704 23.0827 84.4941 23.3734 84.4941 23.7197C84.4941 24.0661 84.3704 24.3568 84.123 24.5918C83.888 24.8392 83.5973 24.9629 83.251 24.9629H78.5752C77.7093 24.9505 76.9919 24.7093 76.4229 24.2393C75.8662 23.7568 75.4642 23.2188 75.2168 22.625C74.9818 22.0189 74.8643 21.3942 74.8643 20.751C74.8643 20.1325 74.988 19.5264 75.2354 18.9326C75.4827 18.3265 75.8848 17.7884 76.4414 17.3184C76.998 16.8359 77.8206 16.5762 78.9092 16.5391H86.7021C87.0485 16.5391 87.3454 16.6566 87.5928 16.8916C87.8402 17.1143 87.9701 17.3988 87.9824 17.7451V23.9795C87.9824 24.3258 87.8525 24.6165 87.5928 24.8516C87.3454 25.0742 87.0485 25.1855 86.7021 25.1855C85.96 25.1237 85.5518 24.7217 85.4775 23.9795ZM100.711 14.9248C100.785 14.1826 101.193 13.7806 101.936 13.7188C102.282 13.7188 102.579 13.8363 102.826 14.0713C103.086 14.2939 103.216 14.5785 103.216 14.9248V23.7568C103.203 24.1032 103.074 24.3939 102.826 24.6289C102.579 24.8516 102.282 24.9629 101.936 24.9629H94.1426C93.054 24.9258 92.2314 24.6722 91.6748 24.2021C91.1182 23.7197 90.7161 23.1816 90.4688 22.5879C90.2214 21.9818 90.0977 21.3695 90.0977 20.751C90.0977 20.1077 90.2152 19.4893 90.4502 18.8955C90.6976 18.2894 91.0996 17.7513 91.6562 17.2812C92.2253 16.7988 92.9427 16.5514 93.8086 16.5391H98.4844C98.8307 16.5391 99.1214 16.6628 99.3564 16.9102C99.6038 17.1452 99.7275 17.4359 99.7275 17.7822C99.7275 18.1286 99.6038 18.4255 99.3564 18.6729C99.1214 18.9079 98.8307 19.0254 98.4844 19.0254H93.7344C93.4993 19.0254 93.2952 19.1243 93.1221 19.3223C92.9489 19.5078 92.819 19.7305 92.7324 19.9902C92.6582 20.2376 92.6211 20.485 92.6211 20.7324C92.6211 20.9922 92.6582 21.252 92.7324 21.5117C92.819 21.7591 92.9489 21.9818 93.1221 22.1797C93.2952 22.3652 93.4993 22.4642 93.7344 22.4766H100.229C100.55 22.4642 100.711 22.3034 100.711 21.9941V14.9248ZM106.945 16.3535C107.279 16.3659 107.564 16.4896 107.799 16.7246C108.034 16.9473 108.158 17.2256 108.17 17.5596V23.9795C108.096 24.7217 107.688 25.1237 106.945 25.1855C106.599 25.1855 106.296 25.0742 106.036 24.8516C105.789 24.6165 105.665 24.3258 105.665 23.9795V17.5596C105.677 17.2132 105.807 16.9287 106.055 16.7061C106.302 16.471 106.599 16.3535 106.945 16.3535ZM105.387 13.9414C105.387 13.5951 105.535 13.2982 105.832 13.0508C106.129 12.8034 106.488 12.6797 106.908 12.6797C107.329 12.6797 107.688 12.8034 107.984 13.0508C108.281 13.2982 108.43 13.5951 108.43 13.9414C108.43 14.3001 108.281 14.6032 107.984 14.8506C107.688 15.098 107.329 15.2217 106.908 15.2217C106.488 15.2217 106.129 15.098 105.832 14.8506C105.535 14.6032 105.387 14.3001 105.387 13.9414ZM111.677 16.3164C112.023 16.3164 112.32 16.4339 112.567 16.6689C112.815 16.8916 112.945 17.1761 112.957 17.5225V19.3965C112.945 19.9036 112.976 20.3737 113.05 20.8066C113.136 21.2272 113.334 21.6045 113.644 21.9385C113.953 22.2725 114.342 22.4518 114.812 22.4766H119.767V17.5596C119.767 17.2132 119.89 16.9287 120.138 16.7061C120.397 16.471 120.701 16.3535 121.047 16.3535C121.789 16.4154 122.197 16.8174 122.271 17.5596V23.6084C122.271 24.598 122.135 25.5319 121.863 26.4102C121.616 27.1895 121.208 27.8451 120.639 28.377C120.082 28.9212 119.371 29.2181 118.505 29.2676H112.085C111.751 29.2552 111.466 29.1315 111.231 28.8965C111.009 28.6738 110.891 28.3955 110.879 28.0615C110.879 27.7152 110.99 27.4183 111.213 27.1709C111.448 26.9235 111.739 26.7936 112.085 26.7812H117.874C118.344 26.7565 118.734 26.5771 119.043 26.2432C119.352 25.9092 119.55 25.5195 119.637 25.0742C119.649 25.0371 119.655 25 119.655 24.9629H114.182C113.316 24.9134 112.598 24.6227 112.029 24.0908C111.473 23.5465 111.071 22.8848 110.823 22.1055C110.588 21.3262 110.465 20.4974 110.452 19.6191V17.5225C110.465 17.1885 110.588 16.9102 110.823 16.6875C111.058 16.4525 111.343 16.3288 111.677 16.3164ZM135.074 23.9795V19.5078C135.074 19.1986 134.913 19.0378 134.592 19.0254H128.098C127.863 19.0378 127.659 19.1429 127.485 19.3408C127.312 19.5264 127.182 19.749 127.096 20.0088C127.021 20.2562 126.984 20.5098 126.984 20.7695C126.984 21.0169 127.021 21.2705 127.096 21.5303C127.182 21.7777 127.312 22.0003 127.485 22.1982C127.659 22.3838 127.863 22.4766 128.098 22.4766H132.848C133.194 22.4766 133.485 22.6003 133.72 22.8477C133.967 23.0827 134.091 23.3734 134.091 23.7197C134.091 24.0661 133.967 24.3568 133.72 24.5918C133.485 24.8392 133.194 24.9629 132.848 24.9629H128.172C127.306 24.9505 126.589 24.7093 126.02 24.2393C125.463 23.7568 125.061 23.2188 124.813 22.625C124.578 22.0189 124.461 21.3942 124.461 20.751C124.461 20.1325 124.585 19.5264 124.832 18.9326C125.079 18.3265 125.481 17.7884 126.038 17.3184C126.595 16.8359 127.417 16.5762 128.506 16.5391H136.299C136.645 16.5391 136.942 16.6566 137.189 16.8916C137.437 17.1143 137.567 17.3988 137.579 17.7451V23.9795C137.579 24.3258 137.449 24.6165 137.189 24.8516C136.942 25.0742 136.645 25.1855 136.299 25.1855C135.557 25.1237 135.148 24.7217 135.074 23.9795ZM150.308 14.9248C150.382 14.1826 150.79 13.7806 151.532 13.7188C151.879 13.7188 152.175 13.8363 152.423 14.0713C152.683 14.2939 152.812 14.5785 152.812 14.9248V23.7568C152.8 24.1032 152.67 24.3939 152.423 24.6289C152.175 24.8516 151.879 24.9629 151.532 24.9629H143.739C142.651 24.9258 141.828 24.6722 141.271 24.2021C140.715 23.7197 140.313 23.1816 140.065 22.5879C139.818 21.9818 139.694 21.3695 139.694 20.751C139.694 20.1077 139.812 19.4893 140.047 18.8955C140.294 18.2894 140.696 17.7513 141.253 17.2812C141.822 16.7988 142.539 16.5514 143.405 16.5391H148.081C148.427 16.5391 148.718 16.6628 148.953 16.9102C149.201 17.1452 149.324 17.4359 149.324 17.7822C149.324 18.1286 149.201 18.4255 148.953 18.6729C148.718 18.9079 148.427 19.0254 148.081 19.0254H143.331C143.096 19.0254 142.892 19.1243 142.719 19.3223C142.546 19.5078 142.416 19.7305 142.329 19.9902C142.255 20.2376 142.218 20.485 142.218 20.7324C142.218 20.9922 142.255 21.252 142.329 21.5117C142.416 21.7591 142.546 21.9818 142.719 22.1797C142.892 22.3652 143.096 22.4642 143.331 22.4766H149.825C150.147 22.4642 150.308 22.3034 150.308 21.9941V14.9248ZM159.065 24.9629C157.977 24.9258 157.154 24.6722 156.598 24.2021C156.041 23.7197 155.639 23.1816 155.392 22.5879C155.144 21.9818 155.021 21.3695 155.021 20.751C155.021 20.1077 155.138 19.4893 155.373 18.8955C155.62 18.2894 156.022 17.7513 156.579 17.2812C157.148 16.7988 157.866 16.5514 158.731 16.5391H165.782C166.129 16.5391 166.419 16.6566 166.654 16.8916C166.902 17.1143 167.025 17.3864 167.025 17.708C167.025 18.042 166.902 18.3265 166.654 18.5615C166.419 18.7842 166.129 18.8955 165.782 18.8955H158.843C158.571 18.8955 158.329 18.9883 158.119 19.1738C157.921 19.3594 157.773 19.6006 157.674 19.8975C157.587 20.1943 157.544 20.485 157.544 20.7695C157.544 21.0788 157.587 21.3818 157.674 21.6787C157.773 21.9756 157.921 22.2168 158.119 22.4023C158.329 22.5755 158.571 22.6683 158.843 22.6807H165.782C166.129 22.6807 166.419 22.792 166.654 23.0146C166.902 23.2373 167.025 23.5033 167.025 23.8125C167.025 24.1341 166.902 24.4062 166.654 24.6289C166.419 24.8516 166.129 24.9629 165.782 24.9629H159.065ZM166.803 20.7139C166.803 20.9489 166.698 21.153 166.487 21.3262C166.302 21.487 166.067 21.5674 165.782 21.5674H159.715C159.43 21.5674 159.189 21.487 158.991 21.3262C158.793 21.153 158.694 20.9489 158.694 20.7139C158.694 20.4912 158.793 20.2933 158.991 20.1201C159.189 19.9593 159.43 19.8789 159.715 19.8789H165.782C166.067 19.8789 166.308 19.9655 166.506 20.1387C166.704 20.2995 166.803 20.4912 166.803 20.7139ZM170.439 13.7188C170.773 13.7311 171.058 13.8548 171.293 14.0898C171.528 14.3125 171.652 14.5908 171.664 14.9248V24.0166C171.59 24.7588 171.182 25.1608 170.439 25.2227C170.093 25.2227 169.79 25.1113 169.53 24.8887C169.283 24.6536 169.159 24.363 169.159 24.0166V14.9248C169.172 14.5785 169.301 14.2939 169.549 14.0713C169.796 13.8363 170.093 13.7188 170.439 13.7188ZM172.796 18.8955C173.155 18.3141 173.841 17.8874 174.855 17.6152L179.624 16.335C179.958 16.236 180.273 16.2669 180.57 16.4277C180.88 16.5762 181.084 16.8174 181.183 17.1514C181.294 17.473 181.269 17.7884 181.108 18.0977C180.96 18.3945 180.719 18.5986 180.385 18.71L175.301 20.0273C174.942 20.1634 174.769 20.3984 174.781 20.7324C174.769 21.0664 174.942 21.3014 175.301 21.4375L180.385 22.7549C180.719 22.8662 180.96 23.0765 181.108 23.3857C181.269 23.6826 181.294 23.9919 181.183 24.3135C181.084 24.6475 180.88 24.8887 180.57 25.0371C180.273 25.1979 179.958 25.2288 179.624 25.1299L174.855 23.8496C173.829 23.5651 173.136 23.1322 172.777 22.5508C172.431 21.9694 172.258 21.3633 172.258 20.7324C172.258 20.1016 172.437 19.4893 172.796 18.8955ZM184.467 13.7188C184.801 13.7311 185.085 13.8548 185.32 14.0898C185.555 14.3125 185.679 14.5908 185.691 14.9248V16.5391H191.443C192.309 16.5514 193.021 16.7988 193.577 17.2812C194.146 17.7513 194.548 18.2832 194.783 18.877C195.031 19.4831 195.154 20.1077 195.154 20.751H195.173V23.9795C195.173 24.3258 195.043 24.6165 194.783 24.8516C194.536 25.0742 194.239 25.1855 193.893 25.1855C193.15 25.1237 192.742 24.7217 192.668 23.9795V20.7324C192.668 20.4974 192.618 20.25 192.52 19.9902C192.433 19.7305 192.303 19.5078 192.13 19.3223C191.957 19.1243 191.753 19.0254 191.518 19.0254H185.691V24.0166C185.617 24.7588 185.209 25.1608 184.467 25.2227C184.12 25.2227 183.817 25.1113 183.558 24.8887C183.31 24.6536 183.187 24.363 183.187 24.0166V14.9248C183.199 14.5785 183.329 14.2939 183.576 14.0713C183.824 13.8363 184.12 13.7188 184.467 13.7188ZM201.352 24.9629C200.263 24.9258 199.44 24.6722 198.884 24.2021C198.327 23.7197 197.925 23.1816 197.678 22.5879C197.43 21.9818 197.307 21.3695 197.307 20.751C197.307 20.1077 197.424 19.4893 197.659 18.8955C197.907 18.2894 198.309 17.7513 198.865 17.2812C199.434 16.7988 200.152 16.5514 201.018 16.5391H207.029C207.895 16.5514 208.606 16.7988 209.163 17.2812C209.732 17.7513 210.134 18.2894 210.369 18.8955C210.617 19.4893 210.74 20.1077 210.74 20.751C210.74 21.3695 210.617 21.9818 210.369 22.5879C210.122 23.1816 209.72 23.7197 209.163 24.2021C208.606 24.6722 207.784 24.9258 206.695 24.9629H201.352ZM200.943 19.0254C200.708 19.0254 200.504 19.1243 200.331 19.3223C200.158 19.5078 200.028 19.7305 199.941 19.9902C199.867 20.2376 199.83 20.485 199.83 20.7324C199.83 20.9922 199.867 21.252 199.941 21.5117C200.028 21.7591 200.158 21.9818 200.331 22.1797C200.504 22.3652 200.708 22.4642 200.943 22.4766H207.104C207.339 22.4642 207.543 22.3652 207.716 22.1797C207.889 21.9818 208.013 21.7591 208.087 21.5117C208.174 21.252 208.217 20.9922 208.217 20.7324C208.217 20.485 208.174 20.2376 208.087 19.9902C208.013 19.7305 207.889 19.5078 207.716 19.3223C207.543 19.1243 207.339 19.0254 207.104 19.0254H200.943Z" fill="#000080"/>
<defs>
<filter id="filter0_d_18930_3" x="-2" y="3" width="40.6787" height="44.4004" filterUnits="userSpaceOnUse" color-interpolation-filters="sRGB">
<feFlood flood-opacity="0" result="BackgroundImageFix"/>
<feColorMatrix in="SourceAlpha" type="matrix" values="0 0 0 0 0 0 0 0 0 0 0 0 0 0 0 0 0 0 127 0" result="hardAlpha"/>
<feOffset dx="-5" dy="4"/>
<feGaussianBlur stdDeviation="2"/>
<feComposite in2="hardAlpha" operator="out"/>
<feColorMatrix type="matrix" values="0 0 0 0 0 0 0 0 0 0 0 0 0 0 0.501961 0 0 0 0.25 0"/>
<feBlend mode="normal" in2="BackgroundImageFix" result="effect1_dropShadow_18930_3"/>
<feBlend mode="normal" in="SourceGraphic" in2="effect1_dropShadow_18930_3" result="shape"/>
</filter>
<filter id="filter1_d_18930_3" x="19.0249" y="3.00049" width="33.1514" height="44.7344" filterUnits="userSpaceOnUse" color-interpolation-filters="sRGB">
<feFlood flood-opacity="0" result="BackgroundImageFix"/>
<feColorMatrix in="SourceAlpha" type="matrix" values="0 0 0 0 0 0 0 0 0 0 0 0 0 0 0 0 0 0 127 0" result="hardAlpha"/>
<feOffset dx="-5" dy="4"/>
<feGaussianBlur stdDeviation="2"/>
<feComposite in2="hardAlpha" operator="out"/>
<feColorMatrix type="matrix" values="0 0 0 0 0 0 0 0 0 0 0 0 0 0 0.501961 0 0 0 0.25 0"/>
<feBlend mode="normal" in2="BackgroundImageFix" result="effect1_dropShadow_18930_3"/>
<feBlend mode="normal" in="SourceGraphic" in2="effect1_dropShadow_18930_3" result="shape"/>
</filter>
<filter id="filter2_d_18930_3" x="12.1836" y="18.6958" width="15.8413" height="14.6792" filterUnits="userSpaceOnUse" color-interpolation-filters="sRGB">
<feFlood flood-opacity="0" result="BackgroundImageFix"/>
<feColorMatrix in="SourceAlpha" type="matrix" values="0 0 0 0 0 0 0 0 0 0 0 0 0 0 0 0 0 0 127 0" result="hardAlpha"/>
<feOffset dx="-4" dy="4"/>
<feGaussianBlur stdDeviation="2"/>
<feComposite in2="hardAlpha" operator="out"/>
<feColorMatrix type="matrix" values="0 0 0 0 0 0 0 0 0 0 0 0 0 0 0.501961 0 0 0 0.25 0"/>
<feBlend mode="normal" in2="BackgroundImageFix" result="effect1_dropShadow_18930_3"/>
<feBlend mode="normal" in="SourceGraphic" in2="effect1_dropShadow_18930_3" result="shape"/>
</filter>
<clipPath id="clip0_18930_3">
<rect width="59" height="43" rx="21.5" fill="white"/>
</clipPath>
</defs>
</svg>
