<svg width="45" height="31" viewBox="0 0 45 31" fill="none" xmlns="http://www.w3.org/2000/svg">
<g clip-path="url(#clip0_16956_182)">
<path d="M5.10585 15.9568C4.95399 15.8231 4.9001 15.6483 4.95986 15.4843C5.42723 14.1998 7.087 13.0645 9.49043 12.2525C9.03385 12.1709 8.59392 12.0318 8.17653 11.8354C7.91884 11.7132 7.68761 11.5742 7.48577 11.4189C4.05257 12.5914 2.42122 14.2376 1.88625 16.2315C1.72458 16.8336 0.0354173 23.0406 0.0354173 23.0406C-0.0752995 23.4361 0.0765686 23.8411 0.448891 24.1509C0.821212 24.4614 1.37578 24.6375 1.95973 24.6375H4.53267C4.54737 24.4168 4.58754 24.1732 4.66201 23.9666C5.58105 21.4456 8.28235 20.9596 10.1126 20.961C11.6666 20.963 13.0637 21.4011 14.0827 22.1091V16.1694H5.73782C5.49091 16.1687 5.2587 16.0904 5.10585 15.9568ZM3.91834 20.4143C3.91834 21.1594 3.02085 21.7676 1.93818 21.7676H1.39341L2.48196 17.8602L2.4898 17.8609C3.30891 18.0215 3.91736 18.5385 3.91736 19.1548L3.91834 20.4143Z" fill="#fff"/>
<path d="M44.4202 20.9741C43.5031 19.211 41.5749 17.7821 39.1127 17.0181C37.9114 16.6448 36.2321 16.4356 34.8055 16.418C34.8055 16.4167 34.8055 16.414 34.8055 16.4113C34.8055 14.5747 32.8165 12.7361 29.6273 11.5684C29.4744 11.6629 29.3098 11.7513 29.1335 11.8336C28.6151 12.078 28.0008 12.2393 27.36 12.3034C29.6802 13.1107 31.2792 14.225 31.7358 15.4812C31.7965 15.6452 31.7417 15.8213 31.5908 15.9543C31.4389 16.088 31.2057 16.1663 30.9588 16.1663H23.4614V24.6344H27.0514C27.0661 24.4137 27.1102 24.17 27.1807 23.9635C27.7402 22.2585 29.9722 20.9592 32.6313 20.9592C35.2895 20.9592 37.5225 22.2572 38.0819 23.9635C38.1534 24.1714 38.1975 24.4137 38.2122 24.6344H43.0397C44.1214 24.6344 44.9993 24.031 44.9993 23.2858C45.0022 22.4752 44.7955 21.699 44.4202 20.9741ZM41.8394 20.9653C39.9347 20.9653 38.4062 19.9103 38.4062 18.5968V17.5418C40.648 18.1743 42.4528 19.4203 43.3669 20.9653H41.8394Z" fill="#fff"/>
<path d="M10.1135 22.3096C8.10985 22.3096 6.48535 23.428 6.48535 24.809C6.48535 26.1886 8.10985 27.3084 10.1135 27.3084C12.1182 27.3084 13.7427 26.1886 13.7427 24.809C13.7427 23.428 12.1182 22.3096 10.1135 22.3096ZM10.1135 25.7317C9.37379 25.7317 8.77415 25.3179 8.77415 24.809C8.77415 24.2994 9.37379 23.8863 10.1135 23.8863C10.8543 23.8863 11.4539 24.2994 11.4539 24.809C11.4539 25.3179 10.8543 25.7317 10.1135 25.7317Z" fill="#fff"/>
<path d="M32.6321 22.3096C30.6284 22.3096 29.0039 23.428 29.0039 24.809C29.0039 26.1886 30.6284 27.3084 32.6321 27.3084C34.6377 27.3084 36.2612 26.1886 36.2612 24.809C36.2612 23.428 34.6377 22.3096 32.6321 22.3096ZM32.6321 25.7317C31.8923 25.7317 31.2927 25.3179 31.2927 24.809C31.2927 24.2994 31.8923 23.8863 32.6321 23.8863C33.3728 23.8863 33.9724 24.2994 33.9724 24.809C33.9724 25.3179 33.3728 25.7317 32.6321 25.7317Z" fill="#fff"/>
<path d="M17.0635 11.2118C16.6901 11.2118 16.3276 11.1517 16.0356 11.0234V24.3737C16.0356 25.1188 16.9263 25.7195 18.008 25.7195H19.5433C20.625 25.7195 21.5117 25.1188 21.5117 24.3737V11.0234C21.2207 11.1517 20.8611 11.2118 20.4888 11.2118H17.0635Z" fill="#fff"/>
<path d="M25.9038 10.8839C26.1634 10.9541 26.4466 10.9878 26.7288 10.9878C27.1902 10.9878 27.6488 10.8967 28.024 10.7199C28.6305 10.4344 29.1136 9.9612 29.1136 9.45362V5.22494C29.1136 4.71804 28.6384 4.24488 28.0319 3.95937C27.6566 3.78185 27.1746 3.69141 26.6984 3.69141C26.4054 3.69141 26.1164 3.72583 25.8567 3.79535L21.771 5.3822C22.1492 5.62114 22.3843 5.96538 22.3843 6.34674V9.52719L25.9038 10.8839Z" fill="#fff"/>
<path d="M10.4888 3.69141C10.0646 3.69141 9.63639 3.78253 9.26113 3.95937C8.65464 4.24488 8.40381 4.71804 8.40381 5.22494V9.45362C8.40381 9.9612 8.66247 10.4344 9.26897 10.7199C9.64423 10.8974 10.045 10.9878 10.4526 10.9878C10.7034 10.9878 10.963 10.9534 11.2227 10.8839L15.1615 9.4489V6.34606C15.1615 5.98698 15.3721 5.66029 15.7131 5.42405L11.2726 3.79535C11.013 3.72583 10.7494 3.69141 10.4888 3.69141Z" fill="#fff"/>
<path d="M17.0631 10.55H20.4884C20.9979 10.55 21.3947 10.2679 21.3947 9.9169V6.34631C21.3947 5.99465 20.9979 5.71387 20.4884 5.71387H17.0631C16.5536 5.71387 16.1519 5.99465 16.1519 6.34631V9.9169C16.1519 10.2679 16.5536 10.55 17.0631 10.55Z" fill="#fff"/>
</g>
<defs>
<clipPath id="clip0_16956_182">
<rect width="45" height="31" fill="white"/>
</clipPath>
</defs>
</svg>
