<svg width="30" height="28" viewBox="0 0 30 28" fill="none" xmlns="http://www.w3.org/2000/svg">
<path d="M25.0649 11.4056C25.0649 10.7876 24.5584 10.3391 23.8604 10.3391C23.7186 10.3391 23.5723 10.3577 23.4259 10.3944L22.9312 10.5184L22.1709 8.83331C21.7239 7.84287 20.4028 7.03711 19.226 7.03711H10.7595C9.58249 7.03711 8.26139 7.84287 7.81458 8.83342L7.05561 10.5153L6.57347 10.3944C6.42705 10.3577 6.28089 10.3391 6.13908 10.3391C5.44115 10.3391 4.93457 10.7876 4.93457 11.4056C4.93457 12.01 5.42195 12.5208 6.0866 12.6823C5.72158 13.6156 5.43987 14.9916 5.43987 15.8997V19.5086C5.43987 20.3112 6.15751 20.9641 7.03973 20.9641H7.5554C8.43763 20.9641 9.15527 20.3112 9.15527 19.5086V18.854H20.8299V19.5086C20.8299 20.3112 21.5476 20.9641 22.4298 20.9641H22.9454C23.8277 20.9641 24.5453 20.3112 24.5453 19.5086V15.8997C24.5453 14.9924 24.264 13.6183 23.8996 12.6851C24.5712 12.5271 25.0649 12.014 25.0649 11.4056ZM8.04291 11.7504L9.29234 8.98153C9.55971 8.38909 10.3544 7.90435 11.0583 7.90435H18.9275C19.6314 7.90435 20.4261 8.38909 20.6935 8.98153L21.9429 11.7504C22.2103 12.3428 21.8531 12.8275 21.1491 12.8275H8.8367C8.13276 12.8275 7.77554 12.3428 8.04291 11.7504ZM11.4021 16.3426C11.4021 16.6628 11.1141 16.9248 10.7622 16.9248H8.19676C7.84479 16.9248 7.55681 16.6628 7.55681 16.3426V15.4275C7.55681 15.1073 7.84479 14.8453 8.19676 14.8453H10.7622C11.1141 14.8453 11.4021 15.1073 11.4021 15.4275V16.3426ZM22.4003 16.3426C22.4003 16.6628 22.1124 16.9248 21.7604 16.9248H19.195C18.843 16.9248 18.555 16.6628 18.555 16.3426V15.4275C18.555 15.1073 18.843 14.8453 19.195 14.8453H21.7604C22.1124 14.8453 22.4003 15.1073 22.4003 15.4275V16.3426Z" fill="#000080"/>
<path d="M0.524464 8.78781C0.700577 8.88492 0.89512 8.93115 1.08698 8.93115C1.45494 8.93115 1.81408 8.76126 2.01861 8.45398C4.71764 4.3999 9.43532 1.97947 14.6385 1.97947C18.99 1.97947 23.0765 3.72025 25.8639 6.69819C25.4086 6.66326 24.9605 6.89299 24.7717 7.29622C24.5364 7.79913 24.7936 8.38039 25.3464 8.59464L27.1278 9.28489C27.4124 9.39516 27.7042 9.44989 27.988 9.44989C28.3414 9.44989 28.6823 9.36501 28.9813 9.19663C29.5204 8.89296 29.8532 8.3571 29.8942 7.72647L29.9979 6.13765C30.0335 5.59201 29.5761 5.12346 28.9763 5.09109C28.4609 5.06256 28.0083 5.36728 27.8689 5.80009C24.6687 2.14819 19.8172 0 14.6385 0C11.6755 0 8.75954 0.707254 6.2059 2.04526C3.72982 3.34263 1.63835 5.20415 0.157519 7.4285C-0.15375 7.896 0.010588 8.50452 0.524464 8.78781Z" fill="#000080"/>
<path d="M29.4754 19.2129C28.9614 18.9297 28.2924 19.0793 27.9813 19.5467C25.2823 23.6008 20.5645 26.0212 15.3613 26.0212C11.0099 26.0212 6.92334 24.2805 4.13599 21.3025C4.59099 21.3373 5.03921 21.1076 5.22799 20.7045C5.46337 20.2016 5.20611 19.6203 4.65332 19.4061L2.87197 18.7158C2.23305 18.4683 1.55765 18.5004 1.01856 18.8041C0.47947 19.1078 0.146699 19.6436 0.105614 20.2743L0.00194321 21.8631C-0.0336378 22.4087 0.423667 22.8774 1.02355 22.9096C1.04544 22.9108 1.06732 22.9115 1.08895 22.9115C1.57723 22.9114 1.99742 22.6148 2.13091 22.2006C5.33115 25.8525 10.1827 28.0007 15.3614 28.0007C18.3243 28.0007 21.2403 27.2935 23.794 25.9555C26.2702 24.658 28.3616 22.7966 29.8425 20.5722C30.1536 20.1046 29.9894 19.4961 29.4754 19.2129Z" fill="#000080"/>
</svg>
